<svg id="Flat" height="512" viewBox="0 0 512 512" width="512" xmlns="http://www.w3.org/2000/svg"><path d="m416 464a8 8 0 0 1 -8-8v-136a8 8 0 0 1 16 0v136a8 8 0 0 1 -8 8z" fill="#6a9c72"/><path d="m352 207.679s-64-8-96 56c0 0 88 8 96-56z" fill="#88c791"/><path d="m24 344s64-8 96 56c0 0-88 8-96-56z" fill="#88c791"/><path d="m384 440c-29.617 0-104 32-104 32h208s-74.385-32-104-32z" fill="#734b39"/><path d="m488 320a24.009 24.009 0 0 0 -16.75-22.88 24.013 24.013 0 0 0 -32.37-32.37 24 24 0 0 0 -45.76 0 24.013 24.013 0 0 0 -32.37 32.37 24 24 0 0 0 0 45.76 24.013 24.013 0 0 0 32.37 32.37 24 24 0 0 0 45.76 0 24.013 24.013 0 0 0 32.37-32.37 24.009 24.009 0 0 0 16.75-22.88z" fill="#d13330"/><circle cx="415.999" cy="319.999" fill="#ffd33a" r="24"/><path d="m256 464a8 8 0 0 1 -8-8v-344a8 8 0 0 1 16 0v344a8 8 0 0 1 -8 8z" fill="#6a9c72"/><path d="m328 112a24.009 24.009 0 0 0 -16.75-22.88 24.013 24.013 0 0 0 -32.37-32.37 24 24 0 0 0 -45.76 0 24.013 24.013 0 0 0 -32.37 32.37 24 24 0 0 0 0 45.76 24.013 24.013 0 0 0 32.37 32.37 24 24 0 0 0 45.76 0 24.013 24.013 0 0 0 32.37-32.37 24.009 24.009 0 0 0 16.75-22.88z" fill="#d13330"/><circle cx="255.999" cy="111.999" fill="#ffd33a" r="24"/><path d="m256 424c-38.729 0-136 48-136 48h272s-97.272-48-136-48z" fill="#996046"/><path d="m120 464a8 8 0 0 1 -8-8v-192a8 8 0 0 1 16 0v192a8 8 0 0 1 -8 8z" fill="#6a9c72"/><path d="m192 264a24.009 24.009 0 0 0 -16.75-22.88 24.013 24.013 0 0 0 -32.37-32.37 24 24 0 0 0 -45.76 0 24.013 24.013 0 0 0 -32.37 32.37 24 24 0 0 0 0 45.76 24.013 24.013 0 0 0 32.37 32.37 24 24 0 0 0 45.76 0 24.013 24.013 0 0 0 32.37-32.37 24.009 24.009 0 0 0 16.75-22.88z" fill="#d13330"/><circle cx="119.999" cy="263.999" fill="#ffd33a" r="24"/><path d="m152 440c-36.451 0-128 32-128 32h256s-91.55-32-128-32z" fill="#b37a60"/></svg>