<?xml version="1.0" encoding="iso-8859-1"?>
<!-- Generator: Adobe Illustrator 19.0.0, SVG Export Plug-In . SVG Version: 6.00 Build 0)  -->
<svg version="1.1" id="Layer_1" xmlns="http://www.w3.org/2000/svg" xmlns:xlink="http://www.w3.org/1999/xlink" x="0px" y="0px"
	 viewBox="0 0 511.998 511.998" style="enable-background:new 0 0 511.998 511.998;" xml:space="preserve">
<path style="fill:#2A2A2C;" d="M114.801,460.813c7.196-105.93,26.713-181.996,43.733-231.739l-3.362-0.809l-4.526-1.988
	c-25.502-10.828-40.887-30.378-49.428-45.254c-0.001,0.005-41.849,192.275-33.87,256.671c0,0-39.487,37.34-39.487,64.396h47.467l0,0
	C81.12,469.183,114.801,460.813,114.801,460.813z"/>
<path style="fill:#B99C80;" d="M49.735,457.053c-10.529,13.078-21.876,30.532-21.876,45.036h47.467l0,0
	c5.794-32.906,37.659-41.275,37.659-41.275c0.086-1.265,0.181-2.504,0.271-3.76H49.735V457.053z"/>
<path style="fill:#2A2A2C;" d="M331.712,456.972L331.712,456.972l20.812-66.529l0.443-5.898
	c-17.036-20.246-37.449-51.774-35.586-85.065l-1.688-0.707l1.25,0.548c-16.424-2.126-30.445-5.568-42.293-9.552l-1.13,1.23
	c0,0-36.911,38.497-9.19,88.074c27.72,49.577,38.545,66.201-2.483,73.969c-41.028,7.768-54.517,29.859-56.326,49.045h97.846
	C303.363,502.082,291.407,466.609,331.712,456.972z"/>
<path style="fill:#B99C80;" d="M331.394,457.053H246.38c-29.051,9.823-39.301,28.505-40.86,45.036h97.846
	C303.363,502.082,291.476,466.802,331.394,457.053z"/>
<path style="fill:#56555B;" d="M471.194,180.943C439.363,39.728,184.713,33.131,184.713,33.131S124.339,2.209,79.168,11.722
	c-45.172,9.513-56.961,38.232-56.961,38.232l5.654,26.041c0,0-22.407,35.129-14.03,64.185c0,0,10.381,29.056,41.883,29.056
	c12.408,0,24.871-3.507,36.285-8.688l0.607,0.617l-0.424-0.074c0,0,13.565,46.124,58.466,65.189l4.526,1.988l0.751,0.809
	c-17.02,49.744-35.742,125.809-42.936,231.739c0,0-31.866,8.369-37.659,41.276h66.052c0,0,38.417-140.604,79.664-242.928l1.018,0.42
	c0,0,27.218,30.979,94.885,39.742l-1.25-0.548l1.688,0.707c-3.156,56.39,57.602,107.73,57.602,107.73s40.207,45.877-23.455,47.406
	c-63.663,1.529-48.162,47.473-48.162,47.473h144.375l-28.48-134.054c0,0,66.04-68.64,77.828-108.453
	C510.803,213.263,471.194,180.943,471.194,180.943z"/>
<path style="fill:#3B3B3F;" d="M471.194,180.943C448.79,81.544,315.991,48.843,239.306,38.191
	c7.981,3.018,15.832,6.042,23.486,9.054c74.273,16.853,163.927,53.642,181.972,133.696c0,0,39.609,32.322,25.893,78.638
	c-11.79,39.814-77.828,108.453-77.828,108.453l28.48,134.054h26.431l-28.48-134.054c0,0,66.04-68.64,77.828-108.453
	C510.803,213.263,471.194,180.943,471.194,180.943z"/>
<path style="fill:#FFDCAF;" d="M303.366,502.089h144.375l-9.568-45.036h-106.81C291.465,466.81,303.366,502.089,303.366,502.089z"/>
<polygon style="fill:#B99C80;" points="411.741,457.053 421.309,502.089 447.741,502.089 438.172,457.053 "/>
<g>
	<path style="fill:#FFDCAF;" d="M154.275,457.053h-41.019c-0.089,1.255-0.185,2.495-0.271,3.76c0,0-31.866,8.369-37.659,41.276
		h66.052C141.378,502.089,146.208,484.414,154.275,457.053z"/>
	<path style="fill:#FFDCAF;" d="M102.024,82.26V48.423L48.51,23.23C28.299,35.11,22.205,49.952,22.205,49.952l5.654,26.041
		c0,0-22.407,35.129-14.03,64.185c0,0,10.381,29.056,41.883,29.056c1.086,0,2.173-0.036,3.259-0.089
		C98.316,154.863,102.024,82.26,102.024,82.26z"/>
</g>
<path d="M480.115,175.616c-10.103-40.358-38.072-73.772-83.182-99.363c-33.354-18.922-75.517-33.321-125.315-42.798
	c-5.377-1.023-10.566,2.506-11.59,7.884c-1.023,5.377,2.507,10.566,7.884,11.59c47.661,9.07,87.78,22.718,119.241,40.565
	c41.217,23.381,66.238,53.537,74.374,89.629c0.482,2.141,1.686,4.081,3.379,5.479c1.406,1.162,34.3,28.921,22.679,68.165
	c-10.966,37.034-74.823,103.726-75.467,104.396c-2.28,2.37-3.235,5.716-2.552,8.931l25.936,122.084H311.646
	c-0.235-4.285,0.332-9.913,3.718-14.751c5.601-8.002,18.19-12.464,36.403-12.901c23.43-0.563,38.065-7.126,43.499-19.508
	c8.442-19.238-10.627-41.829-12.828-44.341c-0.322-0.367-0.678-0.716-1.051-1.032c-0.608-0.515-60.655-52.104-53.646-104.533
	c3.819-28.56,27.273-53.105,69.71-72.95c4.959-2.319,7.099-8.219,4.78-13.177c-2.319-4.959-8.216-7.098-13.177-4.78
	c-46.916,21.939-73.872,50.138-80.235,83.863c-27.648-4.727-47.02-13.255-58.756-19.921c-8.249-4.685-13.863-9.046-17.126-11.878
	c7.828-19.042,15.236-35.381,22.116-48.722c2.508-4.865,0.599-10.843-4.267-13.353c-4.862-2.506-10.841-0.6-13.353,4.267
	c-44.469,86.232-93.044,255.941-103.598,293.719H88.933c8.45-16.599,25.739-21.551,26.571-21.779
	c4.115-1.081,7.082-4.669,7.37-8.915c2.837-41.783,7.721-81.949,14.509-119.386c0.977-5.387-2.598-10.545-7.985-11.521
	c-5.381-0.979-10.545,2.597-11.521,7.984c-6.571,36.236-11.385,74.946-14.327,115.16c-10.177,4.386-28.675,15.291-35.984,38.456
	H39.789c5.802-16.081,22.851-36.371,34.369-47.282c2.289-2.166,3.414-5.293,3.026-8.421c-6.1-49.232,18.495-178.852,29.085-231.073
	c9.124,10.665,21.371,21.199,37.513,28.648c-6.62,20.29-13.377,44.448-19.553,72.693c-1.17,5.348,2.219,10.631,7.567,11.8
	c0.712,0.156,1.425,0.23,2.125,0.23c4.557,0,8.662-3.163,9.674-7.796c17.913-81.928,42.713-134.072,53.329-150.204
	c3.018-4.562,1.771-10.706-2.789-13.73c-4.563-3.025-10.713-1.78-13.739,2.783c-0.862,1.299-14.38,22.038-30.124,65.371
	c-26.935-13.241-40.514-37.706-45.828-49.794c9.958-5.379,17.803-11.125,22.402-14.794c12.608-10.056,20.702-19.003,21.041-19.379
	c3.659-4.066,3.332-10.325-0.732-13.989c-4.065-3.665-10.331-3.338-13.997,0.72c-0.073,0.081-7.421,8.175-18.674,17.151
	c-7.015,5.594-13.727,9.905-19.981,13.232c15.256-27.828,17.307-63.384,17.418-65.576c0.009-0.168,0.013-0.337,0.013-0.505V51.78
	c1.829,3.452,5.621,5.643,9.74,5.247c3.769-0.361,8.507,0.501,9.556,1.744c0.186,0.221,0.534,1.525-0.278,4.532
	c-1.429,5.285,1.698,10.726,6.982,12.154c0.866,0.234,1.735,0.346,2.593,0.346c4.368,0,8.368-2.91,9.562-7.329
	c3.081-11.397-0.362-18.573-3.793-22.587c-8.716-10.197-24.882-8.774-26.696-8.576c-4.171,0.451-7.431,3.429-8.465,7.249
	c-0.936-2.204-2.644-4.047-4.891-5.105L72.591,23.612c2.708-0.813,5.576-1.552,8.618-2.192
	c41.142-8.664,98.416,20.242,98.984,20.533c1.32,0.677,2.778,1.047,4.259,1.086c0.238,0.005,24.063,0.681,57.371,5.52
	c5.404,0.784,10.446-2.966,11.233-8.384c0.788-5.417-2.966-10.447-8.384-11.233c-29-4.213-50.664-5.366-57.476-5.642
	C175.827,17.785,120.915-7.196,77.123,2.022C63.432,4.905,52.477,9.447,43.76,14.541c-0.155,0.085-0.308,0.168-0.459,0.26
	c-22.595,13.37-29.861,30.4-30.265,31.387c-0.763,1.858-0.942,3.904-0.517,5.866l4.83,22.249
	c-5.862,10.432-20.961,41.16-13.044,68.618c0.057,0.198,0.12,0.395,0.19,0.589c0.519,1.455,13.167,35.632,51.216,35.632
	c0.802,0,1.599-0.021,2.397-0.046c0.211,0.013,0.419,0.049,0.632,0.049c0.585,0,1.176-0.056,1.766-0.164
	c9.061-0.555,17.776-2.619,25.81-5.466c1.158,2.652,2.619,5.73,4.421,9.098c-5.784,27.093-39.011,186.609-33.732,251.338
	c-10.616,10.715-39.059,41.873-39.059,68.135c0,5.474,4.438,9.912,9.912,9.912h47.465h66.052c4.468,0,8.384-2.989,9.562-7.299
	c0.137-0.508,14.097-51.48,33.87-113.409c14.141-44.29,27.756-83.234,40.428-115.767c7.135,5.418,18.038,12.375,33.227,18.738
	c-12.526,19.226-23.227,53.089-2.786,89.648l2.631,4.701c11.895,21.235,23.13,41.294,20.379,47.192
	c-0.611,1.307-3.651,4.655-18.687,7.501c-20.775,3.933-36.958,11.684-48.1,23.036c-9.384,9.562-15.004,21.601-16.25,34.815
	c-0.262,2.778,0.659,5.537,2.537,7.602c1.879,2.064,4.541,3.24,7.331,3.24h97.845h144.375c2.991,0,5.82-1.351,7.702-3.674
	s2.614-5.372,1.993-8.298l-27.396-128.964c14.343-15.353,65.739-72.138,76.556-108.667
	C519.959,217.255,489.596,184.486,480.115,175.616z M23.249,137.066c-6.714-24.276,12.776-55.441,12.967-55.742
	c1.406-2.206,1.885-4.877,1.329-7.434l-4.888-22.516c2.126-3.481,7.126-10.311,16.613-16.833l42.841,20.171v27.289
	c-0.985,18.294-9.186,66.406-35.255,77.305c-0.403,0.009-0.79,0.016-1.144,0.016C32.844,159.321,24.23,139.523,23.249,137.066z
	 M377.112,437.051c-0.733,1.668-4.759,7.15-25.822,7.656c-1.858,0.045-3.661,0.136-5.434,0.254l12.457-39.82
	c4.661,4.694,8.19,7.84,9.641,9.098C372.454,419.601,379.56,431.475,377.112,437.051z M263.691,462.784
	c13.173-2.494,27.391-6.654,32.963-18.597c7.047-15.104-2.933-32.92-21.049-65.26l-2.625-4.688
	c-19.603-35.063-2.322-63.518,4.925-73.038c8.819,2.65,18.646,4.97,29.548,6.739c1.475,31.523,19.374,60.32,35.447,80.067
	l-19.05,60.895c-10.908,3.531-19.196,9.252-24.729,17.157c-6.206,8.866-7.521,18.576-7.27,26.119h-73.786
	C224.187,477.545,239.96,467.276,263.691,462.784z"/>
<path d="M65.594,78.427c0-6.411-5.225-11.625-11.647-11.625S42.3,72.017,42.3,78.427s5.225,11.626,11.647,11.626
	S65.594,84.837,65.594,78.427z"/>
<g>
</g>
<g>
</g>
<g>
</g>
<g>
</g>
<g>
</g>
<g>
</g>
<g>
</g>
<g>
</g>
<g>
</g>
<g>
</g>
<g>
</g>
<g>
</g>
<g>
</g>
<g>
</g>
<g>
</g>
</svg>
