<?xml version="1.0" encoding="iso-8859-1"?>
<!-- Generator: Adobe Illustrator 19.0.0, SVG Export Plug-In . SVG Version: 6.00 Build 0)  -->
<svg version="1.1" id="Layer_1" xmlns="http://www.w3.org/2000/svg" xmlns:xlink="http://www.w3.org/1999/xlink" x="0px" y="0px"
	 viewBox="0 0 512 512" style="enable-background:new 0 0 512 512;" xml:space="preserve">
<g>
	<path style="fill:#CCB48D;" d="M337.174,67.273c-2.174-3.548-6.271-14.228-9.365-25.959c-3.78-14.318-3.894-21.599-3.625-24.666
		l0.212-2.427l2.394,0.446c6.062,1.127,10.687,5.184,12.905,7.502l0.742,0.776l-0.15,1.063c-1.198,8.463-0.869,22.56,0.974,41.9
		L337.174,67.273z"/>
	<path style="fill:#CCB48D;" d="M338.097,23.698c-1.03,7.276-1.194,19.794,0.962,42.42c-1.836-2.997-5.883-13.126-9.112-25.368
		c-3.45-13.071-3.859-20.491-3.561-23.908C331.739,17.837,335.897,21.398,338.097,23.698z"/>
	<path style="fill:#CCB48D;" d="M338.319,497.624c-6.198,0-11.648-3.951-13.561-9.832c-23.725-72.799-38.717-120.697-40.102-128.124
		l-0.057-0.306l0.029-0.31c0.378-3.93,4.681-15.528,8.452-24.02c0.66-1.483,0.702-3.136,0.118-4.653
		c-0.583-1.518-1.723-2.716-3.207-3.374c-0.784-0.348-1.61-0.525-2.457-0.525c-2.404,0-4.587,1.419-5.561,3.614
		c-4.614,10.338-9.541,23.513-9.541,29.49c0,0.933,0,2.672,5.117,19.872l0.738,2.479l-2.563,0.344
		c-11.978,1.602-32.939,3.314-55.846,3.314c-17.797,0-33.616-1.035-47.017-3.078l-5.18-0.79l4.179-3.16
		c15.252-11.536,22.665-20.689,22.665-27.983c0-8.377-12.049-31.512-23.211-48.142c-17.353-25.884-32.804-39.007-45.925-39.007
		c-16.113,0-33.132,5.106-33.848,5.323c-3.211,0.979-5.033,4.384-4.055,7.589c0.771,2.545,3.164,4.32,5.819,4.32
		c0.594,0,1.188-0.088,1.764-0.263c0.04-0.017,15.878-4.806,30.322-4.806c6.302,0,18.861,8.59,35.205,32.696
		c13.053,19.258,20.951,37.179,21.705,41.8l0.092,0.562l-0.191,0.535c-0.917,2.578-6.056,10.567-33.892,29.046
		c-18.725,12.434-40.618,24.891-52.38,31.585l-1.61,0.92c-3.734,2.134-6.432,3.677-8.126,4.7c-1.505,0.922-2.542,2.456-2.834,4.2
		c-0.293,1.748,0.191,3.528,1.327,4.884l45.033,54.046c1.164,1.39,2.872,2.19,4.682,2.19h19.076c2.945,0,5.669,1.463,7.286,3.912
		l7.314,10.95h-45.394c-2.276,0-4.44-0.974-5.938-2.673l-56.968-64.075c-4.402-4.971-4.712-12.424-0.734-17.725l17.172-22.891
		c0.96-1.281,1.376-2.932,1.14-4.532c-0.236-1.603-1.111-3.065-2.404-4.012c-1.768-1.334-42.56-32.607-42.56-76.173
		c0-43.9,55.18-93,129.028-93h121.044c0.604,0,1.192-0.088,1.749-0.263l59.135-18.02c1.838-0.558,3.316-1.974,3.956-3.784
		c0.063-0.178,6.707-18.737,17.342-34.683c0.881-1.314,1.212-2.89,0.934-4.445c-0.011-0.043-4.246-23.862-8.064-51.64l-0.013-0.097
		l-0.006-0.098c-0.017-0.346-0.065-0.714-0.144-1.09l-0.024-0.145c-0.301-2.143-0.589-4.319-0.867-6.496
		c-5.703-43.846-5.063-60.132-4.171-65.937l0.394-2.575l2.477,0.808c2.447,0.798,4.601,2.256,6.586,4.46
		c8.758,9.731,12.604,33.36,9.801,60.198c-3.944,37.922,9.522,57.384,10.098,58.193c1.271,1.793,3.036,2.82,4.844,2.82
		c1.53-0.036,3.525-0.492,4.837-2.465l0.114-0.171l0.144-0.147c1.052-1.081,7.063-6.475,22.043-6.475
		c6.803,0,22.537,8.414,39.444,24.495c16.372,15.588,26.541,31.481,26.541,41.479c0,20.094-32.252,20.657-32.578,20.657
		c-0.464,0.009-0.93,0.069-1.342,0.179c-7.527,1.881-15.014,2.83-22.29,2.83c-21.126,0-39.674-7.94-52.226-22.357
		c-1.155-1.325-2.83-2.086-4.594-2.086c-1.467,0-2.887,0.531-3.998,1.495c-2.525,2.202-2.79,6.057-0.588,8.591
		c14.908,17.108,36.678,26.531,61.297,26.531c2.838,0,5.738-0.128,8.621-0.379l2.728-0.239l-0.342,2.717
		c-5.276,42.057-32.277,73.408-54,92.304c-15.037,13.089-29.323,21.867-38.659,26.926l-4.486,2.431l1.293-4.935
		c0.723-2.763-0.608-5.701-3.165-6.983c-0.851-0.425-1.766-0.641-2.711-0.641c-2.322,0-4.406,1.29-5.442,3.366l-8.884,17.757
		l-0.003,0.017l-0.139,0.303c-0.271,0.551-0.457,1.145-0.554,1.769l-0.024,0.144c-0.023,0.224-0.045,0.448-0.049,0.672
		c0.007,0.082,0.01,0.157,0.01,0.226c0.007,0.043,0.012,0.137,0.012,0.232c0.007,0.206,0.034,0.461,0.086,0.722l0.046,0.14
		l0.003,0.135c0.419,2.115,5.091,25.638,10.554,48.923c3.361,14.294,6.402,25.863,9.038,34.386
		c4.984,16.072,7.981,19.462,12.087,20.342c1.274,0.276,2.654,0.442,4.116,0.619l0.365,0.044
		c7.046,0.848,14.324,1.723,16.806,11.575l0.693,2.752h-32.975V497.624z M407.544,154.816c-5.586,0-10.129,4.549-10.129,10.14
		c0,5.586,4.544,10.129,10.129,10.129c5.592,0,10.14-4.544,10.14-10.129C417.684,159.366,413.136,154.816,407.544,154.816z"/>
	<path style="fill:#CCB48D;" d="M451.545,166.582c15.703,14.951,25.854,30.598,25.854,39.876c0,17.738-30.09,18.445-30.366,18.445
		c-0.652,0.011-1.294,0.088-1.913,0.254c-28.728,7.177-55.756,0.133-72.276-18.843c-3.008-3.45-8.249-3.815-11.711-0.807
		c-3.45,3.008-3.815,8.25-0.807,11.711c17.306,19.861,43.326,29.393,71.78,26.905c-5.175,41.259-31.682,72.144-53.257,90.91
		c-13.823,12.031-27.712,20.933-38.262,26.651c0.973-3.716-0.741-7.73-4.313-9.521c-4.103-2.046-9.079-0.387-11.125,3.716
		l-9.013,18.014c-0.011,0.022-0.011,0.055-0.022,0.077c-0.365,0.741-0.62,1.548-0.753,2.4c-0.011,0.066-0.022,0.133-0.032,0.199
		c-0.033,0.343-0.067,0.686-0.067,1.028c0,0.055,0.011,0.111,0.011,0.155c0,0.077,0.012,0.155,0.012,0.232
		c0.011,0.398,0.055,0.785,0.133,1.172c0,0.011,0,0.033,0,0.044c0,0,0.011,0.033,0.011,0.044s0.011,0.033,0.011,0.044
		c0.332,1.681,5.043,25.456,10.594,49.121c3.395,14.442,6.458,26.064,9.079,34.535c4.81,15.515,8.017,20.624,13.734,21.851
		c1.482,0.321,3.041,0.498,4.678,0.697c6.988,0.84,12.817,1.537,14.929,9.919H338.32c-5.231,0-9.842-3.34-11.456-8.305
		c-27.945-85.746-38.958-122.095-40.031-127.845c0.31-3.229,4.058-13.845,8.272-23.333c1.858-4.18-0.023-9.09-4.214-10.948
		c-4.18-1.858-9.079,0.033-10.937,4.213c-2.289,5.131-9.731,22.493-9.731,30.388c0,1.194,0.011,3.03,5.208,20.502
		c-19.673,2.632-66.096,5.75-102.234,0.243c13.392-10.129,23.543-20.347,23.543-29.747c0-9.798-13.79-34.778-23.587-49.375
		c-17.793-26.54-33.861-39.987-47.761-39.987c-16.432,0-33.76,5.197-34.49,5.419c-4.39,1.338-6.867,5.96-5.529,10.351
		c1.327,4.379,5.96,6.856,10.34,5.529c0.156-0.055,15.682-4.711,29.681-4.711c5.474,0,17.494,8.305,33.375,31.726
		c12.817,18.91,20.635,36.515,21.354,40.916c-0.52,1.46-4.412,8.946-33.031,27.944c-18.434,12.242-39.6,24.306-52.251,31.505
		c-4.544,2.599-7.829,4.468-9.787,5.651c-2.057,1.261-3.473,3.351-3.87,5.728c-0.398,2.378,0.265,4.821,1.814,6.668l45.029,54.042
		c1.582,1.891,3.915,2.986,6.382,2.986h19.076c2.201,0,4.235,1.095,5.441,2.919l5.02,7.52h-41.259c-1.637,0-3.197-0.697-4.28-1.924
		l-56.972-64.083c-3.705-4.18-3.97-10.461-0.619-14.929l17.172-22.891c1.327-1.769,1.88-4.003,1.559-6.182
		c-0.321-2.19-1.503-4.169-3.284-5.474c-0.409-0.31-41.657-31.251-41.657-74.389c0-42.862,54.241-90.789,126.817-90.789h121.044
		c0.818,0,1.637-0.122,2.412-0.365l59.118-18.014c2.51-0.763,4.523-2.687,5.396-5.164c0.066-0.188,6.58-18.423,17.096-34.192
		c1.194-1.78,1.648-3.948,1.271-6.06c-0.055-0.254-4.291-24.196-8.049-51.554c-0.023-0.476-0.088-0.962-0.188-1.438
		c-0.3-2.134-0.586-4.302-0.863-6.469c-5.64-43.349-5.076-59.483-4.18-65.321c2.068,0.675,3.915,1.935,5.629,3.837
		c8.35,9.278,11.988,32.235,9.245,58.487c-4.025,38.693,9.897,58.863,10.494,59.704c1.591,2.245,4.014,3.804,6.79,3.749
		c2.709-0.066,5.043-1.205,6.535-3.45c0.818-0.84,6.248-5.806,20.458-5.806C419.841,142.697,435.234,151.068,451.545,166.582z
		 M419.896,164.957c0-6.812-5.54-12.352-12.352-12.352s-12.341,5.54-12.341,12.352c0,6.801,5.529,12.341,12.341,12.341
		C414.356,177.298,419.896,171.758,419.896,164.957z"/>
</g>
<g>
	<path style="fill:#3D484A;" d="M462.979,154.573c9.322,8.869,31.008,31.682,31.008,51.886c0,26.363-28.597,34.314-45.107,34.989
		c0.077,0.619,0.088,1.25,0.023,1.891c-5.043,48.723-35.873,84.353-60.854,105.673c-19.993,17.063-41.734,29.437-54.871,34.436
		c7.365,36.304,16.93,75.816,21.674,85.503c0.211,0.022,0.42,0.044,0.641,0.077c9.101,1.084,30.399,3.627,30.399,34.679
		c0,4.578-3.705,8.294-8.294,8.294H338.32c-12.441,0-23.378-7.94-27.226-19.75c-15.238-46.743-24.793-76.734-30.786-96.108
		c-12.186,1.825-35.143,3.815-60.08,3.815c-22.515,0-46.622-1.637-65.885-6.48c-18.412,12.098-38.793,23.709-51.301,30.842
		c-0.343,0.188-0.673,0.387-1.006,0.575l36.249,43.492h15.194c7.752,0,14.951,3.848,19.241,10.306l13.613,20.414
		c1.703,2.543,1.858,5.817,0.42,8.515c-1.449,2.698-4.257,4.379-7.321,4.379h-56.751c-6.371,0-12.453-2.731-16.676-7.498
		l-56.972-64.083c-8.924-10.041-9.554-25.136-1.493-35.895l12.417-16.554c-13.237-11.722-41.944-41.823-41.944-82.429
		c0-26.374,15.327-53.39,42.055-74.113c27.678-21.453,63.674-33.263,101.348-33.263h119.806l54.042-16.466
		c2.466-6.248,7.874-18.865,15.593-31.074c-1.272-7.409-4.501-26.617-7.453-48.059c-2.355-3.782-8.968-14.254-17.605-26.418
		c-5.607-7.896-21.929-53.168-13.768-68.96C314.398,2.621,318.59,0,323.555,0c10.494,0,18.59,5.065,23.698,9.543
		c1.063-0.343,2.18-0.531,3.33-0.531c8.449,0,16.001,3.417,21.84,9.897c5.618,6.237,18.179,25.666,13.425,71.315
		c-2.024,19.418,1.139,33.031,3.959,40.761c5.33-2.599,13.06-4.877,23.82-4.877C427.957,126.109,448.515,140.806,462.979,154.573z
		 M477.399,206.459c0-9.278-10.152-24.925-25.854-39.876c-16.311-15.515-31.704-23.886-37.919-23.886
		c-14.21,0-19.64,4.965-20.458,5.806c-1.493,2.245-3.826,3.384-6.535,3.45c-2.776,0.055-5.197-1.504-6.79-3.749
		c-0.597-0.84-14.52-21.011-10.494-59.704c2.742-26.252-0.896-49.21-9.245-58.487c-1.714-1.902-3.561-3.163-5.629-3.837
		c-0.896,5.839-1.459,21.973,4.18,65.321c0.276,2.167,0.564,4.335,0.863,6.469c0.1,0.476,0.165,0.962,0.188,1.438
		c3.759,27.358,7.994,51.3,8.049,51.554c0.377,2.112-0.076,4.28-1.271,6.06c-10.516,15.769-17.03,34.004-17.096,34.192
		c-0.874,2.477-2.886,4.401-5.396,5.164l-59.118,18.014c-0.774,0.243-1.594,0.365-2.412,0.365H161.419
		c-72.576,0-126.817,47.927-126.817,90.789c0,43.139,41.248,74.08,41.657,74.389c1.78,1.305,2.964,3.284,3.284,5.474
		c0.321,2.178-0.232,4.412-1.559,6.182l-17.172,22.891c-3.351,4.468-3.085,10.749,0.619,14.929l56.972,64.083
		c1.083,1.227,2.643,1.924,4.28,1.924h41.259l-5.02-7.52c-1.205-1.825-3.24-2.919-5.441-2.919h-19.076
		c-2.466,0-4.799-1.095-6.382-2.986l-45.029-54.042c-1.547-1.847-2.212-4.291-1.814-6.668c0.397-2.378,1.814-4.468,3.87-5.728
		c1.957-1.183,5.242-3.052,9.787-5.651c12.651-7.199,33.816-19.264,52.251-31.505c28.619-18.998,32.511-26.485,33.031-27.944
		c-0.718-4.401-8.537-22.006-21.354-40.916c-15.88-23.421-27.9-31.726-33.375-31.726c-13.999,0-29.525,4.656-29.681,4.711
		c-4.379,1.327-9.011-1.15-10.34-5.529c-1.338-4.39,1.139-9.013,5.529-10.351c0.73-0.221,18.058-5.419,34.49-5.419
		c13.9,0,29.969,13.447,47.761,39.987c9.798,14.597,23.587,39.578,23.587,49.375c0,9.4-10.152,19.617-23.543,29.747
		c36.139,5.507,82.561,2.389,102.234-0.243c-5.197-17.472-5.208-19.308-5.208-20.502c0-7.896,7.441-25.257,9.731-30.388
		c1.858-4.18,6.755-6.071,10.937-4.213c4.191,1.858,6.071,6.768,4.214,10.948c-4.214,9.488-7.962,20.104-8.272,23.333
		c1.073,5.75,12.087,42.099,40.031,127.845c1.615,4.965,6.226,8.305,11.456,8.305h30.134c-2.112-8.382-7.941-9.079-14.929-9.919
		c-1.637-0.199-3.197-0.376-4.678-0.697c-5.717-1.227-8.924-6.336-13.734-21.851c-2.621-8.471-5.684-20.093-9.079-34.535
		c-5.552-23.665-10.262-47.44-10.594-49.121c0-0.011-0.011-0.033-0.011-0.044s-0.011-0.044-0.011-0.044c0-0.011,0-0.033,0-0.044
		c-0.077-0.387-0.122-0.774-0.133-1.172c0-0.077-0.012-0.155-0.012-0.232c0-0.044-0.011-0.1-0.011-0.155
		c0-0.343,0.033-0.686,0.067-1.028c0.011-0.066,0.022-0.133,0.032-0.199c0.133-0.851,0.388-1.659,0.753-2.4
		c0.011-0.022,0.011-0.055,0.022-0.077l9.013-18.014c2.046-4.103,7.022-5.761,11.125-3.716c3.572,1.791,5.286,5.806,4.313,9.521
		c10.55-5.717,24.439-14.619,38.262-26.651c21.575-18.766,48.082-49.652,53.257-90.91c-28.453,2.488-54.473-7.044-71.78-26.905
		c-3.008-3.461-2.643-8.703,0.807-11.711c3.461-3.008,8.703-2.643,11.711,0.807c16.52,18.976,43.548,26.02,72.276,18.843
		c0.62-0.166,1.262-0.243,1.913-0.254C447.309,224.904,477.399,224.196,477.399,206.459z M339.06,66.118
		c-2.156-22.625-1.992-35.143-0.962-42.42c-2.201-2.3-6.359-5.861-11.711-6.856c-0.299,3.417,0.111,10.837,3.561,23.908
		C333.177,52.991,337.224,63.121,339.06,66.118z"/>
	<path style="fill:#3D484A;" d="M407.544,152.605c6.812,0,12.352,5.54,12.352,12.352c0,6.801-5.54,12.341-12.352,12.341
		s-12.341-5.54-12.341-12.341C395.203,158.145,400.732,152.605,407.544,152.605z"/>
</g>
<g>
</g>
<g>
</g>
<g>
</g>
<g>
</g>
<g>
</g>
<g>
</g>
<g>
</g>
<g>
</g>
<g>
</g>
<g>
</g>
<g>
</g>
<g>
</g>
<g>
</g>
<g>
</g>
<g>
</g>
</svg>
