<?xml version="1.0" encoding="iso-8859-1"?>
<!-- Generator: Adobe Illustrator 19.0.0, SVG Export Plug-In . SVG Version: 6.00 Build 0)  -->
<svg version="1.1" id="Capa_1" xmlns="http://www.w3.org/2000/svg" xmlns:xlink="http://www.w3.org/1999/xlink" x="0px" y="0px"
	 viewBox="0 0 512.004 512.004" style="enable-background:new 0 0 512.004 512.004;" xml:space="preserve">
<path style="fill:#93482B;" d="M384.928,145.224c-95.305-32.166-114.199-94.329-92.203-126.26h-0.013
	c0,0,11.517-19.482-24.686-7.652h-0.001c-47.215,18.904-91.975,67.691-26.683,188.36c18.532-5.013,39.174-7.835,68.813,2.717
	c85.454,30.423,104.664,122.438,83.267,182.707c-20.377,57.4-70.803,60.014-86.653,70.785
	c35.38,11.087,100.514,21.846,154.118-31.001C535.66,351.163,516.671,189.688,384.928,145.224z"/>
<path style="fill:#843A24;" d="M392.954,386.37c32.835-71.748,18.572-171.422-67.433-224.282
	c-85.694-52.67-90.205-117.484-61.624-143.685l-0.012-0.003c0,0,3.168-3.338,3.169-6.688
	c-46.852,19.184-90.555,68.121-25.711,187.961c18.532-5.013,39.174-7.836,68.813,2.717
	C390.555,231.012,417.488,319.666,392.954,386.37z"/>
<path style="fill:#AA563C;" d="M58.897,117.397c-17.811,30.969-5.232,63.228,2.512,77.909c2.539,4.814,8.15,7.126,13.351,5.525
	l23.751-7.314c4.721-1.454,7.93-5.802,8.001-10.742c0.655-45.672-19.902-63.318-32.571-69.845
	C68.542,110.147,61.925,112.131,58.897,117.397z"/>
<path style="fill:#93482B;" d="M85.741,191.324c-7.41-14.045-19.225-44.184-4.634-73.888c-2.525-1.894-4.966-3.374-7.167-4.508
	c-5.4-2.782-12.015-0.798-15.044,4.468c-17.811,30.969-5.232,63.228,2.512,77.909c2.539,4.814,8.15,7.126,13.351,5.525l15.651-4.82
	C88.476,194.977,86.827,193.382,85.741,191.324z"/>
<path style="fill:#AA563C;" d="M138.969,192.954c77.739,44.631,93.644-19.17,171.187,8.436
	c85.454,30.423,105.663,123.438,84.267,183.707c-24.924,70.207-94.813,59.948-91.389,80.738
	c7.121,43.234-7.273,37.443-47.475,37.443c-28.29,0-98.505,0.747-125.591,1.047c-6.193,0.069-11.003-5.394-10.148-11.527
	c4.946-35.493,33.489-36.923,60.965-32.814c33.787,5.054,37.979-8.191,14.242-31.593c-13.924-13.727-19.272-28.663-21.314-38.666
	c-1.161-5.688-6.844-9.213-12.467-7.773c-30.91,7.916-48.89-10.897-65.915-10.897c-18.99,0,3.561,23.402-27.239,23.402
	s-35.665-64.356,11.809-64.356c34.652,0,44.011-15.584,46.539-24.003c0.941-3.133,0.224-6.538-1.813-9.099
	c-24.415-30.69-54.187,21.89-93.388,6.189c-37.979-15.211-22.235-40.193-8.309-71.377c13.547-30.335,39.442-46.225,59.955-52.004
	C82.889,179.808,102.88,172.234,138.969,192.954z"/>
<g>
	<path style="fill:#9E4C36;" d="M143.984,492.797c3.091-22.182,15.398-31.06,30.902-33.596c-25.537-2.945-50.471,0.64-55.064,33.596
		c-0.855,6.134,3.955,11.596,10.148,11.528c5.663-0.063,13.214-0.145,21.869-0.236C146.804,502.986,143.238,498.149,143.984,492.797
		z"/>
	<path style="fill:#9E4C36;" d="M59.113,304.482c-1.227-0.366-2.463-0.795-3.709-1.294c-37.979-15.211-22.235-40.193-8.309-71.377
		c13.446-30.109,39.054-45.982,59.493-51.868c-15.448-3.247-23.7-0.136-23.7-0.136c-20.513,5.779-46.408,21.669-59.955,52.004
		c-13.926,31.185-29.672,56.167,8.308,71.378C41.108,307.141,50.377,306.765,59.113,304.482z"/>
</g>
<ellipse style="fill:#EFEFEF;" cx="68.619" cy="238.782" rx="11.432" ry="11.271"/>
<path style="fill:#DADADA;" d="M74.335,229.037c-7.592-4.336-17.147,1.069-17.147,9.751c0,8.676,9.552,14.088,17.147,9.751
	C70.921,246.587,66.711,233.391,74.335,229.037z"/>
<path style="fill:#F2D59F;" d="M100.793,441.688c0,22.007-20.878,62.759-46.633,62.759S7.527,463.695,7.527,441.688
	s20.878-26.233,46.633-26.233C79.914,415.455,100.793,419.682,100.793,441.688z"/>
<path style="fill:#EDBF77;" d="M32.525,441.688c0-19.22,13.365-24.877,31.149-26.002c-3.072-0.163-6.254-0.232-9.515-0.232
	c-25.755,0-46.633,4.226-46.633,26.233c0,24.487,25.876,72.602,56.148,60.918C45.89,494.427,32.525,460.909,32.525,441.688z"/>
<path style="fill:#F6B138;" d="M54.159,415.455c-29.332,0-50.907,5.451-45.878,34.199h91.755
	C105.066,420.907,83.491,415.455,54.159,415.455z"/>
<path style="fill:#F2902F;" d="M63.673,415.687c-17.818-0.946-46.556-0.768-54.024,15.353c-1.544,3.292-2.125,7.009-2.125,10.648
	c0,2.577,0.304,5.387,0.756,7.966h24.878C29.8,426.75,39.995,417.184,63.673,415.687z"/>
<path style="fill:#AA563C;" d="M119.072,121.39c-29.4,19.082-32.837,52.88-32.637,69.161c0.066,5.339,3.931,9.867,9.19,10.794
	l24.012,4.232c4.773,0.841,9.52-1.522,11.789-5.804c20.99-39.593,10.927-64.194,2.781-75.559
	C130.736,119.37,124.071,118.146,119.072,121.39z"/>
<path style="fill:#93482B;" d="M111.435,197.217c-0.187-15.236,2.814-45.807,27.289-65.307c-1.431-3.027-3.006-5.59-4.516-7.697
	c-3.472-4.844-10.137-6.069-15.135-2.824c-29.4,19.082-32.837,52.88-32.637,69.161c0.065,5.339,3.931,9.867,9.19,10.794l18.82,3.317
	C112.601,202.696,111.47,200.076,111.435,197.217z"/>
<g>
	<path style="fill:#9E4C36;" d="M208.596,394.457c-18.57-27.576-5.389-60.398,4.453-77.951c1.653-2.949-1.964-6.009-4.62-3.918
		c-44.195,34.797-45.713,83.943-13.398,115.801c16.85,16.612,19.608,28.097,7.715,31.561c0,0.002,0-0.001,0,0.001
		C239.496,459.966,235.398,434.258,208.596,394.457z"/>
	<path style="fill:#9E4C36;" d="M115.509,321.041l0.003,0.003c19.568-7.732,32.299-29.875,20.049-42.124
		c-12.249-12.249-46.016,12.76-46.016,12.76l0,0c12.921-5.641,24.506-7.978,35.086,5.319c2.037,2.56,2.753,5.965,1.813,9.099
		C125.197,310.248,122.284,316.135,115.509,321.041z"/>
</g>
<ellipse cx="68.619" cy="238.782" rx="11.432" ry="11.271"/>
<path d="M54.159,407.955c-34.374,0-59.2,9.095-53.265,42.991c4.61,26.333,26.148,61,53.265,61c27.443,0,49.662-35.996,53.563-62.91
	C112.445,416.299,87.197,407.955,54.159,407.955z M54.159,422.955c36.109,0,39.134,9.67,39.134,18.733
	c0,0.151-0.012,0.312-0.014,0.465h-78.24c-0.002-0.153-0.014-0.314-0.014-0.465C15.025,432.624,18.049,422.955,54.159,422.955z
	 M54.159,496.948c-16.56,0-30.931-23.321-36.274-39.795h72.55C85.09,473.627,70.685,496.948,54.159,496.948z"/>
<path d="M404.541,144.845c-3.78-1.682-8.217,0.019-9.901,3.803c-1.684,3.785,0.019,8.218,3.803,9.902
	c109.574,48.761,126.69,192.464,57.181,260.99c-40.344,39.773-87.223,42.857-124.771,35.5c32.875-12.631,57.66-30.871,70.639-67.435
	c11.755-33.11,10.965-73.56-2.115-108.203c-25.827-68.406-96.246-103.112-154.178-89.445
	c-37.026-70.668-48.624-141.801,25.391-171.591c4.354-1.414,11.165-3.377,15.752-3.377c-0.02,0.039-0.039,0.076-0.059,0.112
	c-9.562,14.159-11.882,32.907-6.357,51.522c5.567,18.76,24.129,54.029,85.885,79.459c3.833,1.578,8.214-0.25,9.791-4.08
	c1.577-3.83-0.25-8.214-4.08-9.791c-40.894-16.838-69.038-42.3-77.217-69.855c-4.342-14.631-2.709-28.531,4.598-39.137
	c3.382-4.915,4.513-12.88,0.362-18.051c-6.736-8.394-21.478-4.936-33.567-0.984c-0.154,0.051-0.307,0.105-0.458,0.166
	c-82.179,32.905-75.157,111.171-34.819,189.668c-0.973,0.293-1.942,0.586-2.902,0.877c-24.165,7.326-45.113,13.652-82.462-7.126
	c5.922-15.756,8.954-33.877,3.423-51.463c-5.308-16.879-16.122-25.194-16.58-25.54c-2.234-1.687-5.222-1.989-7.749-0.784
	c-9.356,4.463-17.369,10.465-23.958,17.815c-12.895-20.163-32.018-25.68-32.87-25.917c-2.818-0.781-5.836,0.146-7.728,2.38
	c-19.706,23.262-23.174,52.079-10.176,83.637C26.66,204.39,18.92,222.669,12.499,236.639c-13.081,28.466-25.169,57.04,15.957,73.511
	c21.657,8.675,40.638-0.444,55.89-7.772c18.076-8.687,26.307-11.944,35.269,0.395c-1.151,5.319-7.271,19.829-39.709,19.829
	c-57.127,0-52.942,79.355-11.809,79.355c24.247,0,25.227-14.035,25.697-20.78c0.054-0.771,0.127-1.817,0.235-2.553
	c13.82-1.695,35.744,20.479,71.826,9.83c1.829,11.072,7.366,28.966,23.911,45.277c10.887,10.733,12.899,16.703,12.778,18.198
	c-9.596,7.194-50.183-12.011-75.358,9.676c-10.361,8.927-15.613,23.341-15.613,42.843c0,4.143,3.357,7.5,7.5,7.5h112.027
	c4.143,0,7.5-3.357,7.5-7.5s-3.357-7.5-7.5-7.5H126.897c2.765-30.036,22.252-34.113,52.782-29.548
	c19.993,2.992,31.872,0.135,36.302-8.734c4.54-9.085-0.592-20.735-15.686-35.616c-6.728-6.634-11.225-13.524-14.24-19.856
	c-8.727-26.734-5.566-51.463,9.401-73.501c11.389-16.77,25.718-25.759,26.036-25.956c3.53-2.157,4.647-6.767,2.494-10.301
	c-2.154-3.538-6.769-4.657-10.307-2.504c-0.687,0.418-16.969,10.466-30.275,29.81c-8.349,12.138-16.534,29.598-17.07,51.727
	c-32.954,12.504-49.832-8.914-71.001-8.914c-19.804,0-15.171,18.884-17.443,21.45c-0.289,0.326-2.118,1.952-9.795,1.952
	c-20.605,0-25.946-49.356,11.809-49.356c22.06,0,37.994-5.854,47.364-17.4c5.976-7.364,7.262-14.789,7.536-17.91
	c4.34-13.172,11.395-24.583,20.996-33.917c2.971-2.888,3.037-7.636,0.15-10.605c-2.888-2.97-7.636-3.038-10.605-0.15
	c-8.558,8.32-15.396,18.009-20.433,28.908c-28.413-23.968-57.915,22.904-90.882,9.701c-30.103-12.059-19.102-28.086-4.249-61.356
	c12.823-28.714,36.469-41.089,49.147-45.857c-0.016,6.996,0.624,11.549,0.675,11.897c0.599,4.1,4.417,6.93,8.504,6.34
	c4.1-0.599,6.938-4.405,6.34-8.504c-0.076-0.522-6.877-50.602,31.617-72.838c7.178,8.266,21.532,32.669-5.12,77.178
	c-3.005,5.021,0.657,11.354,6.428,11.354c2.55,0,5.036-1.301,6.441-3.648c1.727-2.883,3.461-5.984,5.134-9.259
	c77.441,42.309,96.056-18.945,168.694,6.921c46.708,16.628,68.035,50.641,77.703,76.245c11.865,31.426,12.617,68.018,2.014,97.889
	c-25.039,70.53-97.006,52.368-91.722,84.465c2.368,14.377,2.165,23.293-0.604,26.499c-3.309,3.832-14.562,3.641-28.807,3.397
	c-4.129-0.11-7.557,3.229-7.627,7.371s3.229,7.557,7.371,7.627c36.896,0.627,51.498-3.344,44.61-46.399
	c56.569,16.243,112.244,7.392,155.574-35.327C541.715,355.727,525.656,198.742,404.541,144.845z M67.761,118.137
	c15.966,7.707,20.603,20.399,23.148,22.547c-5.699,9.95-9.11,20.822-10.779,32.121c-6.149,1.785-12.095,4.175-17.761,7.106
	C53.291,156.401,55.097,135.671,67.761,118.137z"/>
<g>
</g>
<g>
</g>
<g>
</g>
<g>
</g>
<g>
</g>
<g>
</g>
<g>
</g>
<g>
</g>
<g>
</g>
<g>
</g>
<g>
</g>
<g>
</g>
<g>
</g>
<g>
</g>
<g>
</g>
</svg>
