<?xml version="1.0"?>
<svg xmlns="http://www.w3.org/2000/svg" id="Filled" viewBox="0 0 512 512" width="512" height="512"><path d="M448,176.319l-16,40-.01-.01a39.762,39.762,0,0,1-14.1,30.16c2.62,26.34,4.03,81.6-25.89,105.53-40,32-96,32-96,32s-24,16-48,64c0,0-48,8-56-56l56-40S144,224,200,176l-7.35-9.8a32,32,0,0,1,2.97-41.82L200,120l-4.87-14.62a15.993,15.993,0,0,1,3.86-16.37L208,80l-4.86-14.59a15.993,15.993,0,0,1,3.9-16.4l9.05-9.01,105.94,106.02a32,32,0,0,1,7.72,32.73l-2.63,7.89a24,24,0,0,0,22.2,31.58c.89.02,1.8.02,2.74,0q-.06-1.11-.06-2.22a40,40,0,0,1,62.6-33Z" style="fill:#fbe9d8"/><path d="M351.959,218.219C349.869,289.309,248,352,248,352S144,224,200,176l-7.35-9.8a32,32,0,0,1,2.97-41.82L200,120l-4.87-14.62a15.993,15.993,0,0,1,3.86-16.37L208,80l-4.86-14.59a15.993,15.993,0,0,1,3.9-16.4l9.05-9.01,105.94,106.02a32,32,0,0,1,7.72,32.73l-2.63,7.89a24,24,0,0,0,22.2,31.58C350.179,218.239,351.049,218.239,351.959,218.219Z" style="fill:#f0dfce"/><circle cx="447.999" cy="63.999" r="40" style="fill:#ff750a"/><path d="M480,459.2c0,11.925-10.078,21.6-22.5,21.6a22.955,22.955,0,0,1-11.382-2.979,38.6,38.6,0,0,1-52.237,0A22.951,22.951,0,0,1,382.5,480.8c-12.422,0-22.5-9.675-22.5-21.6s10.078-21.6,22.5-21.6a22.541,22.541,0,0,1,3.037.2,38.141,38.141,0,0,1,68.925,0,22.546,22.546,0,0,1,3.038-.2C469.921,437.6,480,447.274,480,459.2Z" style="fill:#a3d4f7"/><path d="M168,315.2c0,11.925-10.078,21.6-22.5,21.6a22.955,22.955,0,0,1-11.382-2.979,38.6,38.6,0,0,1-52.237,0A22.951,22.951,0,0,1,70.5,336.8c-12.422,0-22.5-9.675-22.5-21.6s10.078-21.6,22.5-21.6a22.541,22.541,0,0,1,3.037.2,38.141,38.141,0,0,1,68.925,0,22.546,22.546,0,0,1,3.038-.2C157.921,293.6,168,303.274,168,315.2Z" style="fill:#a3d4f7"/><path d="M144,83.2c0,11.925-10.078,21.6-22.5,21.6a22.955,22.955,0,0,1-11.382-2.979,38.6,38.6,0,0,1-52.237,0A22.951,22.951,0,0,1,46.5,104.8C34.077,104.8,24,95.124,24,83.2S34.077,61.6,46.5,61.6a22.541,22.541,0,0,1,3.037.2,38.141,38.141,0,0,1,68.925,0,22.546,22.546,0,0,1,3.038-.2C133.921,61.6,144,71.274,144,83.2Z" style="fill:#a3d4f7"/><circle cx="391.999" cy="208.319" r="8" style="fill:#bfb1a3"/><path d="M175.915,224.546c1.756,17.56,8.461,38.1,19.93,61.032,14.223,28.446,32.033,53.284,40.723,64.757L187.35,385.49a8,8,0,0,0-3.288,7.5c3.032,24.262,11.852,41.992,26.213,52.7A54.942,54.942,0,0,0,243,456.31a41.387,41.387,0,0,0,6.311-.418,8,8,0,0,0,5.84-4.314c16.8-33.608,34.868-52.885,43.53-59.636,12.066-.427,61.2-4,98.312-33.694,14.654-11.721,24.095-30.866,28.059-56.9,2.877-18.9,2.324-37.931,1.16-51.694a47.813,47.813,0,0,0,13.736-31.668l15.476-38.69a8,8,0,0,0-9-10.815l-30.259,6.051A48.009,48.009,0,0,0,344.466,209.3a16.034,16.034,0,0,1-9.757-20.129l2.63-7.89a39.783,39.783,0,0,0-9.65-40.915L221.749,34.346a8,8,0,0,0-11.3-.015l-9.043,9a23.843,23.843,0,0,0-5.853,24.605l3.3,9.9-5.515,5.516a23.853,23.853,0,0,0-5.793,24.554l3.308,9.931-.885.884A40.2,40.2,0,0,0,186.25,171l3.154,4.206C178.408,187.562,173.872,204.121,175.915,224.546ZM392,184a31.749,31.749,0,0,1,18.068,5.593,8,8,0,0,0,6.1,1.252l18.918-3.783-10.341,25.854a7.978,7.978,0,0,0-.756,3.342,31.833,31.833,0,0,1-11.271,24.107,8,8,0,0,0-2.79,6.9c2.22,22.324,4.431,76.611-22.927,98.491C349.756,375.55,296.525,376,296,376a8,8,0,0,0-4.438,1.344c-1.022.681-24.656,16.794-48.625,62.971a39.094,39.094,0,0,1-23.1-7.451c-9.869-7.358-16.324-19.855-19.221-37.188l51.813-37.01c6.806-4.224,104.27-65.988,107.485-138.984a7.989,7.989,0,0,0,.132-1.895Q360,216.895,360,216A32.036,32.036,0,0,1,392,184Zm-186.793-1.926A8,8,0,0,0,206.4,171.2l-7.349-9.8a24.125,24.125,0,0,1,1.008-30.029l34.284,34.284a8,8,0,0,0,11.314-11.314l-38.664-38.664-4.275-12.832a7.947,7.947,0,0,1,1.928-8.18L208,91.314l34.343,34.343a8,8,0,1,0,11.314-11.314L214.993,75.679l-4.264-12.8a8.048,8.048,0,0,1,1.956-8.2l3.39-3.375,100.3,100.369a23.872,23.872,0,0,1,5.791,24.548l-2.631,7.891a32.018,32.018,0,0,0,23.8,41.449c-7.325,53.372-73.174,101.865-93.548,115.7-8.15-10.75-25.953-35.433-39.729-63.037C181.078,220.156,191.424,193.887,205.207,182.074Z"/><path d="M448,16a48,48,0,1,0,48,48A48.054,48.054,0,0,0,448,16Zm0,80a32,32,0,1,1,32-32A32.036,32.036,0,0,1,448,96Z"/><path d="M420,408a45.8,45.8,0,0,0-39.2,21.645C364.772,430.5,352,443.432,352,459.2c0,16.321,13.682,29.6,30.5,29.6a31.327,31.327,0,0,0,10.1-1.671,46.745,46.745,0,0,0,54.8,0,31.327,31.327,0,0,0,10.1,1.671c16.818,0,30.5-13.279,30.5-29.6,0-15.768-12.772-28.7-28.8-29.555A45.8,45.8,0,0,0,420,408Zm35.537,37.726a14.591,14.591,0,0,1,1.963-.126c8,0,14.5,6.1,14.5,13.6s-6.5,13.6-14.5,13.6a15.022,15.022,0,0,1-7.426-1.933,8,8,0,0,0-9.414,1.106,30.6,30.6,0,0,1-41.32,0,8,8,0,0,0-9.414-1.106A15.022,15.022,0,0,1,382.5,472.8c-8,0-14.5-6.1-14.5-13.6s6.5-13.6,14.5-13.6a14.554,14.554,0,0,1,1.962.126,8,8,0,0,0,8.378-4.662C397.478,430.7,408.139,424,420,424s22.522,6.7,27.16,17.064A8,8,0,0,0,455.537,445.726Z"/><path d="M70.5,344.8a31.327,31.327,0,0,0,10.1-1.671,46.745,46.745,0,0,0,54.8,0,31.327,31.327,0,0,0,10.1,1.671c16.818,0,30.5-13.279,30.5-29.6,0-15.768-12.772-28.7-28.8-29.555a46.313,46.313,0,0,0-78.394,0C52.772,286.5,40,299.432,40,315.2,40,331.521,53.682,344.8,70.5,344.8Zm0-43.2a14.554,14.554,0,0,1,1.962.126,7.994,7.994,0,0,0,8.378-4.662C85.478,286.7,96.139,280,108,280s22.522,6.7,27.16,17.064a8.006,8.006,0,0,0,8.377,4.662,14.591,14.591,0,0,1,1.963-.126c8,0,14.5,6.1,14.5,13.6s-6.5,13.6-14.5,13.6a15.022,15.022,0,0,1-7.426-1.933,8,8,0,0,0-9.414,1.106,30.6,30.6,0,0,1-41.32,0,8,8,0,0,0-9.414-1.106A15.022,15.022,0,0,1,70.5,328.8c-7.995,0-14.5-6.1-14.5-13.6S62.505,301.6,70.5,301.6Z"/><path d="M84,120a46.239,46.239,0,0,0,27.4-8.871,31.327,31.327,0,0,0,10.1,1.671c16.818,0,30.5-13.279,30.5-29.6,0-15.768-12.772-28.7-28.8-29.555a46.313,46.313,0,0,0-78.394,0C28.772,54.5,16,67.432,16,83.2c0,16.321,13.682,29.6,30.5,29.6a31.327,31.327,0,0,0,10.1-1.671A46.239,46.239,0,0,0,84,120ZM46.5,96.8C38.505,96.8,32,90.7,32,83.2s6.505-13.6,14.5-13.6a14.554,14.554,0,0,1,1.962.126,8,8,0,0,0,8.378-4.662C61.478,54.7,72.139,48,84,48s22.522,6.7,27.16,17.064a8,8,0,0,0,8.377,4.662A14.591,14.591,0,0,1,121.5,69.6c8,0,14.5,6.1,14.5,13.6s-6.5,13.6-14.5,13.6a15.022,15.022,0,0,1-7.426-1.933,8,8,0,0,0-9.414,1.106,30.6,30.6,0,0,1-41.32,0,8,8,0,0,0-9.414-1.106A15.022,15.022,0,0,1,46.5,96.8Z"/><circle cx="392" cy="208.32" r="8"/></svg>
