<?xml version="1.0" encoding="iso-8859-1"?>
<!-- Generator: Adobe Illustrator 19.0.0, SVG Export Plug-In . SVG Version: 6.00 Build 0)  -->
<svg version="1.1" id="Capa_1" xmlns="http://www.w3.org/2000/svg" xmlns:xlink="http://www.w3.org/1999/xlink" x="0px" y="0px"
	 viewBox="0 0 132.573 132.573" style="enable-background:new 0 0 132.573 132.573;" xml:space="preserve">
<g>
	<path style="fill:#5C6670;" d="M66.286,0L66.286,0c-9.312,0-16.859,7.548-16.859,16.859v66.961c0,9.312,7.548,16.86,16.859,16.86
		l0,0c9.31,0,16.859-7.548,16.859-16.86V16.859C83.146,7.548,75.597,0,66.286,0z"/>
	<g>
		<rect x="49.427" y="50.396" style="fill:#41484F;" width="33.719" height="2.398"/>
		<rect x="49.427" y="57.674" style="fill:#41484F;" width="33.719" height="2.398"/>
		<rect x="49.427" y="64.952" style="fill:#41484F;" width="33.719" height="2.398"/>
		<rect x="49.427" y="72.229" style="fill:#41484F;" width="33.719" height="2.398"/>
	</g>
	<path style="fill:#868D94;" d="M66.286,0L66.286,0c-9.312,0-16.859,7.548-16.859,16.859v10.56h33.719v-10.56
		C83.146,7.548,75.597,0,66.286,0z"/>
	<path style="fill:#F9BE00;" d="M69.997,20.772h-7.423V128.91c0,2.023,1.64,3.663,3.663,3.663h0.098c2.022,0,3.662-1.64,3.662-3.663
		V20.772z"/>
</g>
<g>
</g>
<g>
</g>
<g>
</g>
<g>
</g>
<g>
</g>
<g>
</g>
<g>
</g>
<g>
</g>
<g>
</g>
<g>
</g>
<g>
</g>
<g>
</g>
<g>
</g>
<g>
</g>
<g>
</g>
</svg>
