<svg height="512" viewBox="0 0 128 128" width="512" xmlns="http://www.w3.org/2000/svg"><g><g><g fill="#bdbdc6"><path d="m35.6 85.317 4.283 12.233a2.835 2.835 0 0 0 2.393 1.885 2.836 2.836 0 0 0 2.824-1.564l4.943-9.991z"/><path d="m49.025 87.845 4.275 12.233a2.833 2.833 0 0 0 2.394 1.884 2.834 2.834 0 0 0 2.823-1.563l4.942-9.991z"/><path d="m74.5 92.781c30 16 47 14.375 47 14.375s-23.562-9.023-31.437-14.773z"/><path d="m86.188 90.254a69.314 69.314 0 0 0 35.312 11.259s-14.169-6.064-21.5-12.493z"/></g><path d="m6.5 27.987 7.208-3.75c.542-4.75 2.167-8.891 10.484-8.891 11.308 0 13.141 14.475 16.058 23.308 6 17.583 36.583 38.333 73.417 51.833-16.667 12.5-58.834 5-78.167-2.333s-24.125-23.667-20.625-41.792-1.5-17.187-8.375-18.375z" fill="#eaeaf0"/><g fill="#bdbdc6"><path d="m102.12 81.53c-11.87 4.62-41.83 6.94-60-1.25-19.12-8.63-21.04-17.88-13.04-25.13 8.25-7.37 20.8-9.37 45.04 9.25q.75.54 1.5 1.05a.01.01 0 0 1 .01.01q3.15 2.19 5.98 4.07 4.485 2.97 8.11 5.15c2.05 1.24 3.86 2.29 5.43 3.17 4.48 2.53 6.97 3.68 6.97 3.68z"/><circle cx="23.264" cy="23.751" r="3"/></g></g><g fill="#072130"><path d="m122.126 105.526c-.063-.024-2.86-1.1-6.809-2.725a49.705 49.705 0 0 0 6.046.46h.163a1.75 1.75 0 0 0 .661-3.36c-.063-.027-5.529-2.376-11.331-5.645a25.609 25.609 0 0 0 3.864-2.365 1.75 1.75 0 0 0 -.449-3.043c-4.342-1.589-8.686-3.32-12.964-5.162.5-.172.993-.346 1.453-.525a1.75 1.75 0 0 0 .1-3.221c-.107-.049-10.921-5.07-27.665-16.923-3.359-2.58-6.608-4.85-9.657-6.748a1.75 1.75 0 0 0 -1.849 2.971c2.686 1.673 5.548 3.664 8.545 5.929-6.331-.915-15.578-2.58-21.5-5.122a1.75 1.75 0 0 0 -1.381 3.216c9.443 4.055 26.056 5.905 29.028 6.211 3.214 2.172 6.142 4.056 8.755 5.672-9.391.057-27.642-.562-38.467-5.7a1.75 1.75 0 1 0 -1.5 3.162c11.025 5.23 28.589 6.056 38.578 6.056 3.423 0 5.952-.1 7.028-.147 1.874 1.08 3.479 1.964 4.768 2.65-13.613 3.661-39.161 4.521-54.7-2.485-12.592-5.682-15.853-10.791-16.371-14.082-.432-2.74.842-5.482 3.778-8.143 4.366-3.9 11.914-8.233 26.994-.824a1.75 1.75 0 0 0 1.543-3.142 44.655 44.655 0 0 0 -10.47-3.746 34.584 34.584 0 0 1 -6.405-10.645c-.469-1.418-.912-2.994-1.38-4.661-2.482-8.839-5.57-19.839-16.342-19.839-9.156 0-11.394 4.894-12.095 9.508l-6.4 3.33a1.75 1.75 0 0 0 .505 3.277c.581.1 1.148.184 1.7.267 2.818.421 4.456.722 5.364 2 1.378 1.948 1.343 6.54-.1 14.041a56.041 56.041 0 0 0 -1.077 11.761 1.749 1.749 0 0 0 1.747 1.716h.038a1.749 1.749 0 0 0 1.712-1.786 52.6 52.6 0 0 1 1.016-11.022c1.708-8.841 1.566-13.843-.473-16.726a7.284 7.284 0 0 0 -4.264-2.792l2.657-1.381a1.753 1.753 0 0 0 .931-1.355c.456-4.015 1.429-7.338 8.741-7.338 8.119 0 10.7 9.184 12.973 17.286.479 1.707.932 3.32 1.431 4.83a34.453 34.453 0 0 0 4.8 8.912 21.411 21.411 0 0 0 -15.486 5.729c-3.82 3.462-5.512 7.366-4.894 11.289.949 6.024 7.137 11.653 18.392 16.728 8.908 4.018 20.654 5.609 31.842 5.609a106.5 106.5 0 0 0 22.728-2.325c4.527 2.041 9.146 3.967 13.787 5.739a39.122 39.122 0 0 1 -12.73 3.809 1.754 1.754 0 0 0 -.612.085 84.4 84.4 0 0 1 -12.9.641 1.737 1.737 0 0 0 -.426 0c-17.233-.432-36.363-4.888-46.976-8.918-8.489-3.219-14.429-8.4-17.658-15.395a1.749 1.749 0 1 0 -3.177 1.466c3.626 7.859 10.218 13.646 19.593 17.2.156.06.332.119.491.179l2.861 8.172a4.607 4.607 0 0 0 2.173 2.5l-.993 10.264h-4.828a1.75 1.75 0 0 0 0 3.5h9.25a1.75 1.75 0 0 0 0-3.5h-.906l.96-9.915a4.606 4.606 0 0 0 2.782-2.344l2.254-4.563.469.115 2.259 6.47a4.607 4.607 0 0 0 2.174 2.507l-.745 7.73h-5.075a1.75 1.75 0 1 0 0 3.5h9.25a1.75 1.75 0 0 0 0-3.5h-.655l.712-7.385a4.6 4.6 0 0 0 2.781-2.343l2.137-4.322a146.69 146.69 0 0 0 20.733 2.07c19.859 9.1 32.658 10.037 37.038 10.037 1 0 1.563-.048 1.67-.059a1.75 1.75 0 0 0 .459-3.376zm-78.594-8.432a1.08 1.08 0 0 1 -.962.6c-.042 0-.079 0-.115 0a1.086 1.086 0 0 1 -.923-.717l-1.939-5.539c1.83.592 3.8 1.177 5.873 1.746zm13.42 2.53a1.081 1.081 0 0 1 -.962.6h-.116a1.087 1.087 0 0 1 -.922-.716l-1.522-4.36q2.548.564 5.208 1.07zm54.6-.99a70.755 70.755 0 0 1 -7.35-1.864c.9-.248 1.763-.527 2.612-.823 1.601.959 3.211 1.871 4.741 2.687zm-20.04.141q2.65-.169 5.179-.505c4.093 2.077 8.859 4.208 13.08 6.005a105.559 105.559 0 0 1 -18.256-5.5z"/><path d="m16.7 66.144c-.2-.78-.379-1.585-.525-2.394a1.75 1.75 0 1 0 -3.445.623c.162.894.357 1.785.581 2.648a1.75 1.75 0 0 0 3.389-.877z"/><path d="m21.887 40.094a1.748 1.748 0 0 0 -1.947 1.528c-.2 1.672-.494 3.486-.892 5.546a1.75 1.75 0 1 0 3.436.664c.414-2.142.718-4.036.931-5.79a1.75 1.75 0 0 0 -1.528-1.948z"/><path d="m28.014 23.751a4.75 4.75 0 1 0 -4.75 4.75 4.756 4.756 0 0 0 4.75-4.75zm-4.75 1.249a1.25 1.25 0 1 1 1.25-1.25 1.252 1.252 0 0 1 -1.25 1.25z"/></g></g></svg>