<svg height="511pt" viewBox="-4 0 511 511.7341" width="511pt" xmlns="http://www.w3.org/2000/svg"><path d="m443.789062 31.234375 44.632813 9.113281c3.027344.761719 5.414063 3.09375 6.246094 6.105469s-.019531 6.238281-2.230469 8.445313l-35.285156 27.015624" fill="#805333"/><path d="m396.40625 256.253906c-10.101562 18.558594-23.789062 34.929688-40.265625 48.164063-43.390625 34.710937-121.492187 34.710937-182.234375 26.035156-18.15625-2.648437-36.046875-6.890625-53.457031-12.671875 16.515625-10.105469 32.265625-21.417969 47.121093-33.84375 36.878907 9.632812 84.523438 16.140625 127.824219 3.125 27.832031-7.601562 50.890625-27.101562 63.003907-53.285156 11.796874 8.882812 24.542968 16.417968 38.007812 22.476562zm0 0" fill="#af8066"/><path d="m451.597656 96.144531c-29.417968 39.3125-34.710937 52.070313-34.710937 86.78125-.679688 25.757813-7.714844 50.949219-20.480469 73.328125-13.464844-6.058594-26.210938-13.59375-38.007812-22.476562 17.789062-39.308594 7.636718-86.519532-19.613282-102.917969-7.144531-4.335937-14.597656-8.136719-22.300781-11.371094 15.011719-56.230469 72.546875-92.59375 124.007813-93.632812 7.890624 10.683593 13.3125 22.980469 15.878906 36.011719 3.226562 11.59375 1.496094 24.007812-4.773438 34.277343zm0 0" fill="#f18d46"/><path d="m440.492188 25.855469c-51.460938 1.039062-108.996094 37.402343-124.007813 93.632812-33.152344-13.882812-60.429687-10.09375-81.835937 11.371094l60.660156-60.660156c9.808594-9.804688 19.613281-19.785157 29.59375-29.59375 19.785156-19.4375 45.296875-44.167969 75.582031-40.175781 16.242187 2.671874 30.691406 11.855468 40.007813 25.425781zm0 0" fill="#af8066"/><path d="m182.0625 183.535156c-1.824219 1.734375-3.730469 3.644532-5.554688 5.550782" fill="#7f5b53"/><path d="m170.953125 194.640625c-1.820313 1.734375-3.730469 3.644531-5.554687 5.554687-1.820313 1.734376-3.730469 3.644532-5.550782 5.554688" fill="#7f5b53"/><path d="m358.398438 233.777344c-12.113282 26.183594-35.171876 45.683594-63.003907 53.285156-43.300781 13.015625-90.945312 6.507812-127.824219-3.125-21.652343-5.710938-42.738281-13.382812-63.003906-22.910156l8.59375-8.679688c6.160156-6.160156 15.183594-15.183594 25.683594-25.597656l5.035156-5.035156c1.648438-1.734375 3.382813-3.46875 5.207032-5.207032 1.734374-1.734374 3.46875-3.554687 5.292968-5.292968l11.019532-11.019532c1.824218-1.824218 3.644531-3.730468 5.554687-5.554687 1.910156-1.820313 3.644531-3.730469 5.554687-5.554687 1.910157-1.820313 3.730469-3.730469 5.554688-5.550782 7.375-7.464844 14.578125-14.667968 21.261719-21.351562l31.324219-31.324219c21.40625-21.40625 48.683593-25.195313 81.835937-11.371094 7.703125 3.234375 15.15625 7.035157 22.300781 11.371094 27.25 16.398437 37.402344 63.609375 19.613282 102.917969zm0 0" fill="#7f5b53"/><path d="m167.570312 283.9375c-14.855468 12.425781-30.605468 23.738281-47.121093 33.84375-29.878907 18.234375-61.539063 33.371094-94.488281 45.175781-3.820313 1.359375-8.074219-.117187-10.238282-3.546875-2.164062-3.429687-1.664062-7.902344 1.207032-10.769531l52.839843-52.902344 34.710938-34.710937h.085937c20.265625 9.527344 41.351563 17.199218 63.003906 22.910156zm0 0" fill="#59474e"/><path d="m425.566406 61.433594c0 4.792968-3.886718 8.679687-8.679687 8.679687s-8.675781-3.886719-8.675781-8.679687c0-4.792969 3.882812-8.675782 8.675781-8.675782s8.679687 3.882813 8.679687 8.675782zm0 0" fill="#2c3e50"/><path d="m9.023438 511.734375c-4.4375-.011719-8.148438-3.367187-8.609376-7.78125-.460937-4.410156 2.484376-8.457031 6.820313-9.382813 2.863281-.609374 289.253906-61 478.695313-69.605468 4.746093-.101563 8.730468 3.542968 9.058593 8.277344.105469 2.300781-.707031 4.550781-2.261719 6.253906-1.554687 1.699218-3.722656 2.714844-6.023437 2.8125-188 8.550781-473.019531 68.636718-475.882813 69.242187-.589843.125-1.195312.1875-1.796874.183594zm0 0" fill="#805333"/><path d="m494.988281 503.054688c-1.523437-.003907-3.019531-.410157-4.339843-1.179688l-93.234376-54.359375c-4.140624-2.414063-5.539062-7.730469-3.125-11.871094 2.417969-4.140625 7.730469-5.539062 11.871094-3.121093l93.203125 54.320312c3.425781 1.960938 5.097657 5.984375 4.070313 9.796875-1.027344 3.808594-4.5 6.445313-8.445313 6.414063zm0 0" fill="#804537"/><g fill="#59474e"><path d="m309.898438 478.664062c-4.1875.003907-7.785157-2.980468-8.550782-7.097656-.761718-4.117187 1.523438-8.191406 5.433594-9.6875.699219-.261718 1.382812-.574218 2.039062-.929687-.90625-1.121094-1.953124-2.125-3.113281-2.984375-3.910156-2.773438-4.828125-8.191406-2.054687-12.101563 2.777344-3.90625 8.195312-4.828125 12.101562-2.050781 6.75 4.277344 10.875 11.679688 10.960938 19.671875-.546875 4.46875-3.375 10.628906-13.710938 14.597656-.992187.382813-2.042968.578125-3.105468.582031zm0 0"/><path d="m359.796875 472.242188c-4.1875.003906-7.785156-2.980469-8.550781-7.097657-.761719-4.117187 1.523437-8.191406 5.433594-9.6875.699218-.265625 1.378906-.578125 2.039062-.929687-.894531-1.109375-1.925781-2.105469-3.070312-2.957032-2.535157-1.792968-3.917969-4.804687-3.632813-7.894531.289063-3.089843 2.203125-5.792969 5.023437-7.089843 2.816407-1.296876 6.117188-.988282 8.648438.804687 6.734375 4.285156 10.847656 11.6875 10.925781 19.671875-.546875 4.460938-3.375 10.621094-13.710937 14.589844-.992188.382812-2.042969.582031-3.105469.589844zm0 0"/><path d="m264.335938 462.53125c-.484376 0-.96875-.039062-1.449219-.121094-4.722657-.796875-7.910157-5.273437-7.113281-10l6.074218-36.097656c.46875-3.097656 2.574219-5.703125 5.503906-6.8125 2.929688-1.109375 6.230469-.550781 8.636719 1.457031 2.402344 2.007813 3.539063 5.152344 2.972657 8.234375l-6.074219 36.101563c-.703125 4.175781-4.316407 7.230469-8.550781 7.238281zm0 0"/><path d="m312.066406 458.191406c-.488281 0-.976562-.039062-1.457031-.121094-2.269531-.386718-4.292969-1.65625-5.628906-3.53125-1.332031-1.875-1.863281-4.207031-1.480469-6.476562l6.683594-39.484375c.515625-3.058594 2.628906-5.609375 5.535156-6.6875 2.90625-1.082031 6.171875-.527344 8.5625 1.449219 2.386719 1.976562 3.542969 5.078125 3.023438 8.136718l-6.691407 39.511719c-.71875 4.160157-4.324219 7.199219-8.546875 7.203125zm0 0"/><path d="m360.644531 453.15625c-2.003906 0-3.949219-.695312-5.5-1.96875l-79.578125-65.34375c-7.089844-5.941406-8.273437-16.402344-2.691406-23.777344 5.3125-6.945312 23.214844-30.375 30.617188-37.75 2.179687-2.257812 5.40625-3.160156 8.441406-2.367187 3.03125.792969 5.402344 3.164062 6.195312 6.199219.792969 3.03125-.109375 6.257812-2.367187 8.4375-5.265625 5.269531-18.960938 22.683593-29.078125 35.996093l79.472656 65.191407c2.835938 2.324218 3.902344 6.179687 2.664062 9.632812-1.234374 3.453125-4.507812 5.753906-8.175781 5.75zm0 0"/><path d="m310.746094 459.578125c-2.007813.003906-3.953125-.691406-5.5-1.96875l-87.300782-71.765625c-7.0625-5.96875-8.207031-16.425781-2.605468-23.777344 3.835937-5.050781 17.0625-22.40625 25.75-32.5 1.957031-2.546875 5.160156-3.808594 8.328125-3.273437 3.167969.535156 5.78125 2.777343 6.792969 5.824219 1.011718 3.050781.253906 6.410156-1.964844 8.730468-8.359375 9.710938-21.3125 26.703125-25.089844 31.683594l87.066406 71.671875c2.828125 2.328125 3.890625 6.179687 2.652344 9.625-1.234375 3.449219-4.5 5.75-8.164062 5.75zm0 0"/></g></svg>