<svg id="Capa_1" enable-background="new 0 0 512 512" height="512" viewBox="0 0 512 512" width="512" xmlns="http://www.w3.org/2000/svg"><g><g><path d="m191.75 7.5h128.5c33.137 0 60 26.863 60 60v128.5c0 33.137-26.863 60-60 60h-128.5c-33.137 0-60-26.863-60-60v-128.5c0-33.137 26.863-60 60-60z" fill="#9edcae"/></g><g><path d="m211.75 196v-128.5c0-33.137 26.863-60 60-60h-80c-33.137 0-60 26.863-60 60v128.5c0 33.137 26.863 60 60 60h80c-33.137 0-60-26.863-60-60z" fill="#7fd196"/></g><g><path d="m67.5 256h128.5c33.137 0 60 26.863 60 60v128.5c0 33.137-26.863 60-60 60h-128.5c-33.137 0-60-26.863-60-60v-128.5c0-33.137 26.863-60 60-60z" fill="#ffdf8e"/></g><g><path d="m87.5 444.5v-128.5c0-33.137 26.863-60 60-60h-80c-33.137 0-60 26.863-60 60v128.5c0 33.137 26.863 60 60 60h80c-33.137 0-60-26.863-60-60z" fill="#ffcd6e"/></g><g><path d="m316 256h128.5c33.137 0 60 26.863 60 60v128.5c0 33.137-26.863 60-60 60h-128.5c-33.137 0-60-26.863-60-60v-128.5c0-33.137 26.863-60 60-60z" fill="#fda0c1"/></g><g><path d="m336 444.5v-128.5c0-33.137 26.863-60 60-60h-80c-33.137 0-60 26.863-60 60v128.5c0 33.137 26.863 60 60 60h80c-33.137 0-60-26.863-60-60z" fill="#fc90b4"/></g><g><path d="m140.718 313.664 15.429 31.262c1.457 2.952 4.273 4.998 7.53 5.471l34.499 5.013c8.203 1.192 11.478 11.273 5.543 17.059l-24.964 24.334c-2.357 2.298-3.433 5.608-2.876 8.852l5.893 34.36c1.401 8.17-7.174 14.4-14.511 10.543l-30.857-16.223c-2.914-1.532-6.394-1.532-9.308 0l-30.857 16.223c-7.337 3.857-15.912-2.373-14.511-10.543l5.893-34.36c.556-3.244-.519-6.555-2.876-8.852l-24.964-24.334c-5.936-5.786-2.66-15.867 5.543-17.059l34.499-5.013c3.257-.473 6.073-2.519 7.53-5.471l15.429-31.262c3.668-7.433 14.268-7.433 17.936 0z" fill="#f7f0eb"/></g><g><circle cx="256" cy="131.75" fill="#f7f0eb" r="75"/></g><g><path d="m256 131.75c0-27.756 15.089-51.972 37.5-64.941-11.034-6.386-23.834-10.059-37.5-10.059-41.421 0-75 33.579-75 75s33.579 75 75 75c13.666 0 26.466-3.673 37.5-10.059-22.411-12.969-37.5-37.185-37.5-64.941z" fill="#efe2dd"/></g><g><path d="m306.681 430.975 64.909-112.426c3.849-6.667 13.471-6.667 17.32 0l64.909 112.426c3.849 6.667-.962 15-8.66 15h-129.818c-7.698 0-12.509-8.333-8.66-15z" fill="#f7f0eb"/></g><g><path d="m438.342 404.168c-5.263 1.17-10.727 1.807-16.342 1.807-33.181 0-61.311-21.557-71.197-51.422l-44.122 76.422c-3.849 6.667.962 15 8.66 15h129.818c7.698 0 12.509-8.333 8.66-15z" fill="#efe2dd"/></g><g><path d="m175.879 405.655c-.162-.945-.17-1.892-.064-2.822-33.993-.232-62.595-23.075-71.551-54.242-1.293.94-2.812 1.57-4.441 1.806l-34.499 5.013c-8.203 1.192-11.478 11.273-5.543 17.059l24.964 24.334c2.357 2.297 3.433 5.608 2.876 8.852l-5.893 34.36c-1.401 8.17 7.174 14.4 14.511 10.543l30.857-16.223c2.914-1.532 6.394-1.532 9.308 0l30.857 16.223c7.337 3.857 15.912-2.373 14.511-10.543z" fill="#efe2dd"/></g><g><path d="m199.255 347.988-34.5-5.013c-.814-.119-1.518-.63-1.882-1.369l-15.429-31.261c-2.97-6.018-8.983-9.756-15.694-9.756s-12.724 3.738-15.694 9.756l-15.429 31.262c-.364.738-1.067 1.249-1.882 1.368l-34.5 5.013c-6.641.965-12.054 5.529-14.128 11.911-2.073 6.382-.376 13.256 4.429 17.94l24.963 24.333c.589.575.858 1.403.719 2.215l-5.893 34.359c-.875 5.102.521 10.279 3.83 14.205 3.363 3.989 8.253 6.277 13.417 6.277 2.84 0 5.581-.684 8.146-2.032l30.858-16.222c.715-.376 1.612-.376 2.328 0l30.857 16.222c2.566 1.349 5.307 2.033 8.147 2.032 5.164 0 10.053-2.289 13.417-6.278 3.309-3.925 4.705-9.102 3.83-14.203l-5.893-34.36c-.139-.812.13-1.639.719-2.214l24.964-24.333c4.806-4.684 6.502-11.559 4.429-17.94-2.075-6.383-7.488-10.947-14.129-11.912zm-.771 19.11-24.964 24.334c-4.125 4.022-6.007 9.813-5.033 15.49l5.893 34.36c.133.776-.035 1.431-.514 1.999-.492.584-1.239.946-1.95.946-.387 0-.769-.101-1.165-.31l-30.857-16.222c-2.502-1.315-5.318-2.01-8.144-2.01s-5.642.695-8.144 2.01l-30.858 16.223c-.396.208-.777.309-1.166.309-.71 0-1.457-.362-1.949-.945-.479-.569-.647-1.223-.514-2l5.893-34.359c.974-5.678-.907-11.469-5.033-15.491l-24.964-24.333c-.969-.944-.813-2.012-.633-2.564.179-.552.68-1.507 2.019-1.702l34.499-5.013c5.702-.829 10.628-4.408 13.177-9.574l15.429-31.262c.599-1.213 1.662-1.394 2.243-1.394s1.644.181 2.243 1.395l15.428 31.26c2.55 5.167 7.476 8.747 13.177 9.575l34.5 5.013c1.339.195 1.84 1.15 2.019 1.702.18.551.337 1.619-.632 2.563z"/><path d="m256 214.25c45.491 0 82.5-37.009 82.5-82.5s-37.009-82.5-82.5-82.5c-39.083 0-73.085 27.76-80.85 66.007-.824 4.06 1.799 8.018 5.858 8.842s8.019-1.798 8.842-5.858c6.351-31.284 34.171-53.991 66.15-53.991 37.22 0 67.5 30.28 67.5 67.5s-30.28 67.5-67.5 67.5c-31.928 0-59.739-22.663-66.128-53.888-.83-4.058-4.793-6.675-8.851-5.844-4.058.83-6.675 4.793-5.844 8.851 7.81 38.174 41.802 65.881 80.823 65.881z"/><path d="m430.09 374.875c-2.071-3.588-6.658-4.816-10.245-2.745s-4.816 6.658-2.745 10.245l30.225 52.351c.628 1.088.27 2.033 0 2.5s-.909 1.25-2.165 1.25h-129.819c-1.256 0-1.896-.783-2.165-1.25s-.628-1.412 0-2.5l64.909-112.426c.628-1.087 1.626-1.25 2.165-1.25s1.537.163 2.165 1.25l19.152 33.173c2.072 3.588 6.659 4.818 10.245 2.745 3.587-2.071 4.816-6.658 2.745-10.245l-19.152-33.173c-3.164-5.479-8.829-8.75-15.155-8.75s-11.992 3.271-15.155 8.75l-64.909 112.426c-3.164 5.479-3.164 12.021 0 17.5 3.163 5.479 8.829 8.75 15.155 8.75h129.818c6.327 0 11.992-3.271 15.155-8.75 3.164-5.479 3.164-12.021 0-17.5z"/><path d="m444.5 248.5h-81.889c15.319-12.384 25.139-31.313 25.139-52.5v-128.5c0-37.22-30.28-67.5-67.5-67.5h-128.5c-37.22 0-67.5 30.28-67.5 67.5v128.5c0 21.187 9.82 40.116 25.139 52.5h-81.889c-37.22 0-67.5 30.28-67.5 67.5v128.5c0 37.22 30.28 67.5 67.5 67.5h128.5c26.102 0 48.774-14.902 60-36.636 11.226 21.734 33.898 36.636 60 36.636h128.5c37.22 0 67.5-30.28 67.5-67.5v-128.5c0-37.22-30.28-67.5-67.5-67.5zm-305.25-52.5v-128.5c0-28.949 23.551-52.5 52.5-52.5h128.5c28.949 0 52.5 23.551 52.5 52.5v128.5c0 28.949-23.551 52.5-52.5 52.5h-128.5c-28.949 0-52.5-23.551-52.5-52.5zm134.389 67.5c-7.28 5.886-13.308 13.252-17.639 21.636-4.331-8.384-10.359-15.751-17.639-21.636zm-77.639 233.5h-128.5c-28.949 0-52.5-23.551-52.5-52.5v-128.5c0-28.949 23.551-52.5 52.5-52.5h128.5c28.949 0 52.5 23.551 52.5 52.5v128.5c0 28.949-23.551 52.5-52.5 52.5zm301-52.5c0 28.949-23.551 52.5-52.5 52.5h-128.5c-28.949 0-52.5-23.551-52.5-52.5v-128.5c0-28.949 23.551-52.5 52.5-52.5h128.5c28.949 0 52.5 23.551 52.5 52.5z"/></g></g></svg>