<svg id="Flat" enable-background="new 0 0 512 512" height="512" viewBox="0 0 512 512" width="512" xmlns="http://www.w3.org/2000/svg"><g><path d="m256 448-40 40v-224l40-40z" fill="#00a8e7"/><path d="m256 224h-192l-40 40h192z" fill="#00a8e7"/><path d="m256 448 40 40v-224l-40-40z" fill="#931d5b"/><path d="m256 224h192l40 40h-192z" fill="#931d5b"/><path d="m296 264h192v224h-192z" fill="#f249b4"/><path d="m24 264h192v224h-192z" fill="#29c0ef"/><path d="m136 24h240v240h-240z" fill="#f8f117"/><path d="m272 56h-32l-72 176h40l16-40h64l16 40h40zm-40 104 24-56 24 56z" fill="#e22526"/><path d="m168 337.3725586v-1.3725586c0-22.0913086-17.9086914-40-40-40h-56v160h56c22.0913086 0 40-17.9086914 40-40v-1.3725586c0-14.4882813-5.7553711-28.3828125-16-38.6274414 10.2446289-10.2446289 16-24.1391602 16-38.6274414zm-32 70.6274414c0 8.8364258-7.1635742 16-16 16h-16v-32h16c8.8364258 0 16 7.1635742 16 16zm0-64c0 8.8364258-7.1635742 16-16 16h-16v-32h16c8.8364258 0 16 7.1635742 16 16z" fill="#f8f117"/><path d="m440 344v-.000061c0-26.5096131-21.4902954-47.999939-47.999939-47.999939h-.0001221c-26.5096435 0-47.9999389 21.4902954-47.9999389 47.999939v64.0001221c0 26.5096435 21.4902954 47.9999389 47.999939 47.9999389h.0001221c26.5096435 0 47.9999389-21.4902954 47.9999389-47.999939v-.000061h-32v.0000305c0 8.8365174-7.1634216 15.9999695-15.9999695 15.9999695h-.000061c-8.8365479 0-15.9999695-7.1634216-15.9999695-15.9999695v-64.000061c0-8.8365479 7.1634216-15.9999695 15.9999695-15.9999695h.000061c8.8365479 0 15.9999695 7.1634521 15.9999695 15.9999695v.0000305z" fill="#acdd12"/></g></svg>