<?xml version="1.0" encoding="iso-8859-1"?>
<!-- Generator: Adobe Illustrator 19.0.0, SVG Export Plug-In . SVG Version: 6.00 Build 0)  -->
<svg version="1.1" id="Capa_1" xmlns="http://www.w3.org/2000/svg" xmlns:xlink="http://www.w3.org/1999/xlink" x="0px" y="0px"
	 viewBox="0 0 512 512" style="enable-background:new 0 0 512 512;" xml:space="preserve">
<path style="fill:#9C969E;" d="M459.229,443.459h32.253c4.762,0,8.529-4.005,8.195-8.756c-1.562-22.275-5.541-80.102-5.541-90.83
	c0-13.347,18.48-100.612,6.16-146.812l-29.773,29.773L459.229,443.459z"/>
<path style="fill:#867E88;" d="M236.445,255.068l-62.163,110.434c-1.66,2.89-2.717,6.086-3.106,9.398l-3.697,31.424
	c-0.333,2.834-1.157,5.588-2.433,8.141l-9.987,19.974c-2.072,4.144,0.941,9.021,5.575,9.021h51.685l12.833-73.405l58.519-69.299
	L236.445,255.068z"/>
<path style="fill:#AEA8AF;" d="M500.295,197.062C492.082,147.782,434.59,82.076,385.31,90.29s-65.706,16.427-114.986-8.213
	s-73.919-8.213-73.919-8.213c-24.639,8.213-55.914,2.817-78.026,13.347c-17.956,8.551-44.832,89.49-51.846,131.412
	c-0.583,3.488-4.247,22.173-4.279,29.773c-0.104,25.553,5.757,83.726,25.066,117.712c2.623-5.386,6.376-10.177,11.306-13.83
	c-9.78-33.046-5.129-81.973-2.34-103.426c0.838-6.435,5.033-11.786,10.939-14.478c16.011-7.297,34.942-19.706,45.913-27.263
	c5.799-3.994,13.18-4.884,19.747-2.337c7.312,2.837,12.465,9.479,13.391,17.269l21.904,183.978c0.357,2.998-0.12,6.037-1.377,8.783
	l-9.934,21.675c-1.498,3.264,0.888,6.982,4.479,6.982h36.123c4.535,0,8.213-3.677,8.213-8.214V287.407
	c0,0,66.113,56.262,150.973,33.068l22.205,25.247c2.637,2.997,4.09,6.852,4.09,10.845v50.906c0,2.07-0.391,4.12-1.153,6.045
	l-9.182,23.199c-1.281,3.234,1.103,6.741,4.582,6.741h50.242V336.687C467.443,312.048,508.509,246.342,500.295,197.062z"/>
<g>
	<path style="fill:#9C969E;" d="M245.685,287.353v0.055c0,0,66.113,56.262,150.973,33.068l-24.708-24.707
		c-3.207-3.207-7.59-4.802-12.126-4.756c-32.041,0.325-69.359-10.852-92.367-19.069
		C256.821,268.145,245.685,276.061,245.685,287.353z"/>
	<path style="fill:#9C969E;" d="M177.712,100.077L161.8,136.331c-10.034,22.86-6.977,49.769,9.087,68.879
		c1.276,1.518,2.457,2.772,3.488,3.698c3.116,2.799,7.804,2.73,10.889-0.105c0.61-0.561,1.265-1.169,1.958-1.82
		c4.12-3.873,7.991-8.003,11.672-12.297l11.749-13.707c6.053-7.062,11.659-14.536,16.23-22.637
		c4.904-8.693,8.772-17.84,10.601-26.987c4.502-22.511-7.95-48.023-29.763-50.132C194.845,79.981,182.906,88.243,177.712,100.077z"
		/>
</g>
<path style="fill:#EDEBED;" d="M14.582,244.461c12.51-3.609,38.731-12.495,54.992-27.361c2.358-2.155,5.691-2.827,8.53-1.365
	c5.097,2.625,12.902,7.511,17.033,14.437c2.438,4.087,0.597,9.389-3.597,11.639c-13.57,7.278-46.784,21.673-77.285,8.051
	C11.808,248.769,12.006,245.204,14.582,244.461z"/>
<path style="fill:#4B3F4E;" d="M106.06,172.423c-4.539,0-8.253-3.677-8.253-8.213c0-4.536,3.633-8.213,8.173-8.213h0.08
	c4.539,0,8.213,3.677,8.213,8.213C114.274,168.745,110.6,172.423,106.06,172.423z"/>
<path d="M106.059,156.71h-0.082c-4.143,0-7.459,3.357-7.459,7.5s3.398,7.5,7.541,7.5s7.5-3.357,7.5-7.5
	S110.203,156.71,106.059,156.71z"/>
<path d="M501.636,343.874c0-2.683,1.138-10.642,2.454-19.856c4.597-32.167,13.137-91.943,3.543-128.523
	c-4.385-25.706-21.266-55.821-44.127-78.682c-25.689-25.691-54.646-38.057-79.43-33.921c-6.66,1.109-12.585,2.193-18.313,3.242
	c-35.466,6.489-51.649,9.452-92.084-10.767c-47.507-23.751-74.71-11.529-80.364-8.386c-10.268,3.278-22.358,4.136-34.061,4.965
	c-15.174,1.076-30.865,2.188-44.101,8.49c-25.031,11.92-47.841,97.024-54.492,134.382c-20.736,16.217-54.368,24.102-54.834,24.21
	c-2.983,0.683-5.253,3.109-5.734,6.132c-0.48,3.022,0.924,6.035,3.549,7.609c11.314,6.789,24.238,10.208,38.222,10.208
	c5.027,0,10.197-0.459,15.472-1.345c1.021,20.887,4.596,43.942,9.887,63.22c8.234,30.013,19.988,50.328,34.937,60.383
	c6.985,4.698,14.678,7.062,22.771,7.062c5.636,0,11.467-1.146,17.387-3.448c3.86-1.502,5.772-5.848,4.271-9.71
	c-1.501-3.858-5.843-5.769-9.71-4.271c-3.246,1.262-6.35,2.028-9.335,2.317c-0.197-0.069-0.396-0.136-0.601-0.189
	c-11.71-3.048-25.853-17.774-26.728-70.621c-0.442-26.701,2.908-52.772,4.367-62.735c21.394-8.445,49.769-28.096,59.072-34.737
	c2.039,2.17,3.975,4.024,5.643,5.525c2.598,2.338,5.757,3.656,8.991,3.961l12.335,103.618l-22.845,39.756
	c-2.178,3.79-3.541,7.914-4.052,12.258l-3.698,31.425c-0.231,1.976-0.801,3.88-1.69,5.66l-14.498,28.996
	c-1.163,2.325-1.038,5.086,0.328,7.298c1.366,2.211,3.78,3.557,6.38,3.557h86.923c8.665,0,15.714-7.049,15.714-15.714v-84.817
	l26.283-33.152c2.301,1.085,4.688,2.157,7.164,3.205c21.798,9.223,44.096,13.862,66.027,13.862c13.961,0,27.771-1.906,41.208-5.682
	l19.361,22.013c1.435,1.632,2.225,3.726,2.225,5.896v50.902c0,1.128-0.211,2.233-0.627,3.284l-11.852,29.94
	c-0.914,2.31-0.626,4.922,0.771,6.977c1.397,2.055,3.72,3.284,6.203,3.284h81.532c4.353,0,8.549-1.821,11.51-4.998
	c2.952-3.166,4.471-7.46,4.168-11.782C505.864,415.695,501.636,354.553,501.636,343.874z M30.844,247.06
	c13.845-5.042,31.465-13.099,43.97-24.592c4.862,2.541,11.397,6.892,14.218,12.149C79.16,240.017,55.071,251.176,30.844,247.06z
	 M85.214,306.435c0.203,12.723,1.181,24.053,2.921,33.993c-10.139-25.354-15.023-58.524-15.938-82.369
	c6.142-1.922,11.62-4.163,16.152-6.271C86.748,264.965,84.877,285.296,85.214,306.435z M171.756,417.817
	c1.669-3.34,2.736-6.912,3.171-10.618l3.697-31.423c0.273-2.316,1-4.516,2.161-6.537l12.808-22.288l7.137,59.957
	c0.194,1.63-0.064,3.28-0.749,4.772l-11.128,24.278h-26.17L171.756,417.817z M253.185,326.284v-23.96
	c3.525,2.392,7.786,5.1,12.724,7.911L253.185,326.284z M459.229,435.959h-38.244l7.789-19.68c1.114-2.816,1.68-5.778,1.68-8.806
	v-50.902c0-5.817-2.116-11.43-5.96-15.802l-45.872-52.155c-2.736-3.11-7.475-3.414-10.586-0.679
	c-3.11,2.735-3.414,7.475-0.679,10.586l15.406,17.516c-29.279,6.646-59.447,3.574-89.822-9.175
	c-20.504-8.606-34.885-19.254-39.756-23.117v-18.924c0-4.143-3.357-7.5-7.5-7.5s-7.5,3.357-7.5,7.5v170.425
	c0,0.394-0.319,0.713-0.713,0.713h-32.115l8.262-18.028c1.835-4.001,2.528-8.427,2.008-12.798l-22.971-192.964
	c2.269-2.139,4.546-4.363,6.797-6.64c2.912-2.946,2.886-7.694-0.06-10.607c-2.946-2.912-7.695-2.887-10.607,0.06
	c-2.845,2.877-5.729,5.662-8.576,8.279c-0.262,0.242-0.621,0.249-0.877,0.02c-6.247-5.621-17.076-17.164-19.417-31.313
	c-0.676-4.086-4.523-6.852-8.624-6.175c-4.086,0.676-6.851,4.537-6.175,8.624c1.417,8.566,5.007,16.235,9.22,22.699
	c-8.878,6.294-33.003,22.895-51.712,31.101c-6.047-12.111-20.178-18.987-25.204-21.114c4.613-22.501,11.525-47.13,19.105-67.8
	c14.113-38.49,23.368-44.507,25.08-45.322c10.675-5.083,24.293-6.048,38.711-7.07c6.358-0.451,12.823-0.911,19.207-1.747
	c-0.429,1.838-0.173,3.837,0.879,5.58c2.142,3.547,6.752,4.684,10.298,2.545c13.76-8.307,22.68-5.811,27.74-2.254
	c9.722,6.83,14.741,23.532,11.678,38.85c-2.355,11.776-8.772,24.942-19.069,39.133c-2.433,3.353-1.688,8.043,1.665,10.477
	c1.331,0.966,2.872,1.431,4.399,1.431c2.32,0,4.608-1.074,6.076-3.096c11.576-15.952,18.855-31.093,21.638-45.003
	c4.293-21.467-3.011-43.7-17.763-54.066c-1.269-0.891-2.798-1.827-4.569-2.69c10.813,0.314,25.621,3.288,44.477,12.715
	c44.917,22.459,65.013,18.781,101.494,12.105c5.671-1.038,11.535-2.111,18.079-3.202c19.939-3.318,44.136,7.512,66.356,29.732
	c20.845,20.845,36.162,47.975,39.988,70.818c0.001,0.005,0.002,0.011,0.003,0.017c0.002,0.013,0.005,0.027,0.007,0.04
	c4.83,28.983-9.001,65.176-20.113,94.257c-7.175,18.776-12.843,33.607-12.843,44.136v99.272L459.229,435.959L459.229,435.959z
	 M492.02,435.732c-0.141,0.151-0.321,0.228-0.538,0.228h-16.539v-99.272c0-7.759,5.758-22.827,11.855-38.78
	c2.669-6.984,5.484-14.359,8.181-21.968c-1.658,17.382-3.991,33.732-5.737,45.955c-1.569,10.979-2.605,18.23-2.605,21.98
	c0,10.862,3.889,67.506,5.561,91.355C492.2,435.301,492.216,435.522,492.02,435.732z"/>
<g>
</g>
<g>
</g>
<g>
</g>
<g>
</g>
<g>
</g>
<g>
</g>
<g>
</g>
<g>
</g>
<g>
</g>
<g>
</g>
<g>
</g>
<g>
</g>
<g>
</g>
<g>
</g>
<g>
</g>
</svg>
