<?xml version="1.0" encoding="iso-8859-1"?>
<!-- Generator: Adobe Illustrator 19.0.0, SVG Export Plug-In . SVG Version: 6.00 Build 0)  -->
<svg version="1.1" id="Layer_1" xmlns="http://www.w3.org/2000/svg" xmlns:xlink="http://www.w3.org/1999/xlink" x="0px" y="0px"
	 viewBox="0 0 512.002 512.002" style="enable-background:new 0 0 512.002 512.002;" xml:space="preserve">
<path style="fill:#D2873C;" d="M264.994,95.404c2.101,2.111,2.101,5.561,0,7.672l-68.393,68.651c-2.101,2.11-5.54,2.11-7.641,0
	L95.494,77.904c-2.101-2.111-2.101-5.561,0-7.672l68.393-68.65c2.101-2.111,5.54-2.111,7.641,0L264.994,95.404z"/>
<path style="fill:#965930;" d="M237.971,105.249l18.415-18.484L244.975,75.31l-18.416,18.486l-18.692-18.764l18.416-18.485
	l-11.411-11.454l-18.416,18.485l-18.694-18.764l18.416-18.485l-11.411-11.455L166.35,33.359l-17.061-17.126l-11.411,11.455
	l17.061,17.125l-16.377,16.439L121.5,44.127L110.089,55.58l17.062,17.127l-18.417,18.487l11.411,11.454l18.417-18.486l18.693,18.763
	l-18.418,18.486l11.411,11.455l18.418-18.487l18.693,18.764l-18.417,18.487l11.411,11.455l18.418-18.488l12.429,12.475
	l11.411-11.455l-12.429-12.474l16.378-16.439l12.428,12.474l11.411-11.453L237.971,105.249z M149.974,72.707l16.377-16.439
	l18.694,18.764l-16.378,16.439L149.974,72.707z M198.771,121.69l-18.693-18.764l16.378-16.439l18.693,18.763L198.771,121.69z"/>
<path style="opacity:0.1;enable-background:new    ;" d="M199.553,161.133L106.087,67.31c-2.101-2.111-2.101-5.561,0-7.672
	l2.333-2.341c-0.001-0.01-0.005-0.021-0.006-0.029L95.493,70.233c-2.101,2.111-2.101,5.561,0,7.672l93.466,93.822
	c2.102,2.11,5.541,2.11,7.641,0l10.38-10.42C204.868,163.222,201.589,163.176,199.553,161.133z"/>
<ellipse style="fill:#A0C663;" cx="287.295" cy="82.526" rx="80.029" ry="78.451"/>
<path style="opacity:0.1;enable-background:new    ;" d="M240.91,82.526c0-37.669,27.088-69.123,63.207-76.699
	c-5.424-1.137-11.048-1.75-16.818-1.75c-44.196,0-80.025,35.123-80.025,78.449c0,43.329,35.829,78.449,80.025,78.449
	c5.77,0,11.394-0.612,16.818-1.749C267.999,151.649,240.91,120.196,240.91,82.526z"/>
<ellipse style="fill:#FFF0C0;" cx="236.534" cy="186.337" rx="80.029" ry="78.451"/>
<path style="opacity:0.1;enable-background:new    ;" d="M190.25,186.337c0-37.653,27.064-69.094,63.157-76.688
	c-5.44-1.144-11.078-1.761-16.868-1.761c-44.196,0-80.023,35.12-80.023,78.448c0,43.326,35.827,78.449,80.023,78.449
	c5.789,0,11.428-0.618,16.868-1.761C217.313,255.431,190.25,223.989,190.25,186.337z"/>
<ellipse style="fill:#554141;" cx="182.701" cy="204.257" rx="10.582" ry="10.374"/>
<ellipse style="fill:#D2873C;" cx="243.065" cy="221.508" rx="10.583" ry="10.374"/>
<ellipse style="fill:#554141;" cx="225.824" cy="176.232" rx="10.582" ry="10.374"/>
<ellipse style="fill:#D2873C;" cx="185.742" cy="155.345" rx="10.583" ry="10.375"/>
<ellipse style="fill:#554141;" cx="220.631" cy="128.136" rx="10.583" ry="10.375"/>
<ellipse style="fill:#D2873C;" cx="265.509" cy="144.572" rx="10.583" ry="10.375"/>
<ellipse style="fill:#FCA181;" cx="338.057" cy="186.337" rx="80.029" ry="78.451"/>
<path style="fill:#E86436;" d="M300.435,175.523h-8.234c-4.465,0-8.084-3.62-8.084-8.084s3.62-8.083,8.084-8.083h8.234
	c4.465,0,8.084,3.618,8.084,8.083C308.518,171.903,304.9,175.523,300.435,175.523z"/>
<path style="opacity:0.1;enable-background:new    ;" d="M291.571,186.337c0-37.687,27.112-69.154,63.257-76.709
	c-5.409-1.132-11.015-1.739-16.767-1.739c-44.198,0-80.025,35.12-80.025,78.448c0,43.326,35.827,78.449,80.025,78.449
	c5.752,0,11.359-0.608,16.767-1.74C318.683,255.49,291.571,224.023,291.571,186.337z"/>
<g>
	<path style="fill:#E86436;" d="M336.459,146.291h-8.234c-4.465,0-8.084-3.62-8.084-8.084c0-4.465,3.62-8.083,8.084-8.083h8.234
		c4.464,0,8.084,3.618,8.084,8.083C344.543,142.671,340.924,146.291,336.459,146.291z"/>
	<path style="fill:#E86436;" d="M351.006,191.327h-8.234c-4.465,0-8.084-3.62-8.084-8.084s3.62-8.083,8.084-8.083h8.234
		c4.465,0,8.084,3.618,8.084,8.083C359.089,187.708,355.471,191.327,351.006,191.327z"/>
</g>
<g>
	<path style="fill:#FFFFFF;" d="M379.687,233.364h-8.234c-4.465,0-8.084-3.62-8.084-8.084s3.62-8.083,8.084-8.083h8.234
		c4.465,0,8.084,3.618,8.084,8.083S384.152,233.364,379.687,233.364z"/>
	<path style="fill:#FFFFFF;" d="M383.731,160.068h-8.234c-4.465,0-8.084-3.62-8.084-8.084c0-4.464,3.62-8.083,8.084-8.083h8.234
		c4.465,0,8.084,3.62,8.084,8.083C391.816,156.448,388.196,160.068,383.731,160.068z"/>
	<path style="fill:#FFFFFF;" d="M303.474,216.118h-8.234c-4.464,0-8.084-3.62-8.084-8.084s3.62-8.084,8.084-8.084h8.234
		c4.465,0,8.084,3.62,8.084,8.084C311.559,212.499,307.938,216.118,303.474,216.118z"/>
</g>
<path style="fill:#FFAA0E;" d="M377.909,268.449c2.978,0,4.53,2.271,3.449,5.045L289.264,509.92c-1.081,2.774-2.849,2.774-3.93,0
	L193.24,273.494c-1.081-2.774,0.472-5.045,3.449-5.045H377.909z"/>
<path style="fill:#FBD33B;" d="M364.892,315.769l6.298-16.169h-32.921v-31.093c0-0.019-0.002-0.038-0.002-0.059h-16.164
	c0,0.021-0.002,0.039-0.002,0.059v31.094h-26.716v-30.839c0-0.106-0.011-0.208-0.016-0.313h-16.136
	c-0.004,0.104-0.016,0.208-0.016,0.313v30.839h-29.892v-31.094c0-0.019-0.002-0.038-0.002-0.059h-16.164
	c0,0.021-0.002,0.039-0.002,0.059v31.094h-29.746l6.298,16.169h23.446v28.315h-12.417l6.298,16.169h6.119v15.708l16.169,41.508
	v-12.733h29.892v28.315h-23.824l6.298,16.169h17.526v44.991l6.119,15.711c1.081,2.774,2.849,2.774,3.93,0l6.119-15.709v-44.993
	h17.526l6.298-16.169h-23.824v-28.315H322.1v20.891l16.169-41.509v-23.865h9.296l6.298-16.169h-15.594v-28.315L364.892,315.769
	L364.892,315.769z M279.215,388.566h-29.892v-28.315h29.892V388.566z M279.215,344.084h-29.892v-28.315h29.892V344.084z
	 M322.1,388.566h-26.716v-28.315H322.1V388.566z M322.1,344.084h-26.716v-28.315H322.1V344.084z"/>
<path style="opacity:0.1;enable-background:new    ;" d="M227.069,273.494c-1.081-2.774,0.471-5.045,3.449-5.045H196.69
	c-2.978,0-4.531,2.271-3.449,5.045l92.094,236.426c1.081,2.774,2.849,2.774,3.93,0l14.949-38.377L227.069,273.494z"/>
<path style="fill:#965930;" d="M371.536,288.757c-7.976,0-15.095-5.082-18.576-13.259c-0.458-1.074-1.432-1.767-2.482-1.767
	c-1.05,0-2.025,0.693-2.481,1.767c-3.485,8.179-10.603,13.259-18.578,13.259s-15.095-5.082-18.577-13.259
	c-0.457-1.074-1.43-1.767-2.482-1.767c-1.049,0-2.025,0.693-2.481,1.767c-3.484,8.179-10.603,13.259-18.578,13.259
	s-15.095-5.079-18.577-13.259c-0.458-1.074-1.431-1.767-2.482-1.767c-1.052,0-2.024,0.693-2.481,1.765
	c-3.485,8.178-10.603,13.261-18.579,13.261c-7.975,0-15.094-5.079-18.578-13.259c-0.457-1.074-1.43-1.767-2.481-1.767
	c-1.051,0-2.025,0.693-2.481,1.765c-3.483,8.178-10.602,13.261-18.577,13.261c-11.383,0-20.644-10.5-20.644-23.41v-16.067
	c0-2.59,1.851-4.688,4.134-4.688h201.492c2.284,0,4.134,2.099,4.134,4.688v16.067C392.179,278.256,382.919,288.757,371.536,288.757z
	"/>
<g style="opacity:0.1;">
	<path d="M204.692,265.346v-16.067c0-2.59,1.851-4.688,4.134-4.688h-22.273c-2.283,0-4.134,2.099-4.134,4.688v16.067
		c0,12.911,9.261,23.41,20.644,23.41c4.065,0,7.903-1.325,11.153-3.701C208.494,280.888,204.692,273.614,204.692,265.346z"/>
</g>
<g>
</g>
<g>
</g>
<g>
</g>
<g>
</g>
<g>
</g>
<g>
</g>
<g>
</g>
<g>
</g>
<g>
</g>
<g>
</g>
<g>
</g>
<g>
</g>
<g>
</g>
<g>
</g>
<g>
</g>
</svg>
