<svg height="512" viewBox="0 0 58 58" width="512" xmlns="http://www.w3.org/2000/svg"><g id="Page-1" fill="none" fill-rule="evenodd"><g id="002---Jam-Toast" fill-rule="nonzero"><path id="Shape" d="m29 58h24c2.7614237 0 5-2.2385763 5-5v-36.84c.000903-2.7126096-.8030181-5.3645051-2.31-7.62l-1.69-2.54c1.1032019-.0032948 1.9967052-.89679813 2-2v-2c-.0032948-1.10320187-.8967981-1.9967052-2-2h-28c-1.1032019.0032948-1.9967052.89679813-2 2v2c.0032948 1.10320187.8967981 1.9967052 2 2l-1.69 2.54c-1.4787629 2.2092648-2.2815015 4.8016587-2.31 7.46v.27z" fill="#b19046"/><path id="Shape" d="m58 16.16v36.84c0 2.7614237-2.2385763 5-5 5h-24c2.209139 0 4-1.790861 4-4v-17c-.0085973-.5494426.2168199-1.0766278.62-1.45 2.1109022-2.0483614 3.3106952-4.8586874 3.33-7.8-.18-5.65-6.5-10.34-14.95-11.48v-.27c.0284985-2.6583413.8312371-5.2507352 2.31-7.46l1.69-2.54h28l1.69 2.54c1.5069819 2.2554949 2.310903 4.9073904 2.31 7.62z" fill="#f29c1f"/><path id="Shape" d="m58 16.16v36.84c0 2.7614237-2.2385763 5-5 5h-24c2.209139 0 4-1.790861 4-4v-17c-.0085973-.5494426.2168199-1.0766278.62-1.45 2.1109022-2.0483614 3.3106952-4.8586874 3.33-7.8-.18-5.65-6.5-10.34-14.95-11.48v-.27c.0284985-2.6583413.8312371-5.2507352 2.31-7.46l1.69-2.54h28l1.69 2.54c1.5069819 2.2554949 2.310903 4.9073904 2.31 7.62z" fill="#f0785a"/><path id="Shape" d="m47.654 28.732c-.4043959-.0000863-.7689341-.2437275-.923678-.6173454-.1547439-.373618-.0692299-.8036603.216678-1.0896546l2.192-2.192c.9463212-1.0335319 1.1530737-2.545335.519-3.795-.2471474-.4940187-.0470187-1.0948525.447-1.342.4940187-.2471474 1.0948526-.0470187 1.342.447 1.017912 2.0184524.6603015 4.4585244-.894 6.1l-2.192 2.192c-.1868359.1890172-.4412297.2958841-.707.297z" fill="#a56a43"/><path id="Shape" d="m36.95 27.75c-.0193048 2.9413126-1.2190978 5.7516386-3.33 7.8-.4031801.3733722-.6285973.9005574-.62 1.45v17c0 2.209139-1.790861 4-4 4h-21c-2.209139 0-4-1.790861-4-4v-17c.00859725-.5494426-.21681987-1.0766278-.62-1.45-2.11090223-2.0483614-3.31069524-4.8586874-3.33-7.8.2-6.41 8.31-11.58 18.45-11.74 1.1706928.0193551 2.3392971.1061657 3.5.26 6.22.84 11.28 3.6 13.59 7.25.8305765 1.2596044 1.3008729 2.7223646 1.36 4.23z" fill="#cf976a"/><path id="Shape" d="m8 56c-1.1045695 0-2-.8954305-2-2v-17c.00677247-1.1151568-.45815332-2.1812171-1.28-2.935-1.69070701-1.6689924-2.65053431-3.9403559-2.669-6.316.223-5.236 7.593-9.6 16.481-9.74 1.0703541.021461 2.1386789.1025869 3.2.243 5.502.748 10.168 3.171 12.168 6.337.6250746.9413756.9872338 2.0326866 1.049 3.161-.018218 2.3682319-.972684 4.6330665-2.655 6.3-.829765.7556185-1.3000515 1.8277555-1.294 2.95v17c0 1.1045695-.8954305 2-2 2z" fill="#f9eab0"/><path id="Rectangle-path" d="m30 0h20v6h-20z" fill="#e4c05c"/><path id="Shape" d="m52.64 36.44c-.0238784 2.328163-1.0386197 4.5358618-2.79 6.07-3.29 3.29-10.74 7.55-16.85 8.87v-14.38c-.0085973-.5494426.2168199-1.0766278.62-1.45 2.1109022-2.0483614 3.3106952-4.8586874 3.33-7.8-.0591271-1.5076354-.5294235-2.9703956-1.36-4.23 1.0332862-.53664 2.1860999-.8016151 3.35-.77-.28 1.59 1.24 4.1 4.86 4.84l-.01.01c-2.9 4.922-1.22 7.041 4.01 3.99.04.18.08.35.12.52.2521569.96923.6977585 1.8774408 1.31 2.67.7804315 1.0971986 2.0650065 1.7225343 3.41 1.66z" fill="#e64c3c"/><path id="Shape" d="m47.66 27.73c-5.908.678-9.143-2.579-8.72-4.98h.01c.16-.98 1-1.61 2.45-1.28 4.53 1.04 6.26 6.26 6.26 6.26z" fill="#4c8056"/><path id="Shape" d="m49.23 34.78c-.02-.02-.03-.05-.05-.07-.0787854-.0899901-.1490845-.1870697-.21-.29-1.316-1.81-1.549-4.42-1.31-6.69 0 0 5.21 1.73 6.25 6.25.668 2.936-2.541 3.366-4.68.8z" fill="#4c8056"/><path id="Shape" d="m47.8 31.59c-5.23 3.051-6.909.935-4.01-3.99l.01-.01c1.2701367.2592576 2.574419.3065632 3.86.14-.1912965 1.2843172-.1438343 2.5929155.14 3.86z" fill="#24ae5f"/><path id="Shape" d="m43.81 27.58-.01.01" fill="#e64c3c"/><g fill="#f0c419"><circle id="Oval" cx="39" cy="34" r="1"/><circle id="Oval" cx="37" cy="42" r="1"/><circle id="Oval" cx="37" cy="38" r="1"/><circle id="Oval" cx="48" cy="39" r="1"/><circle id="Oval" cx="44" cy="37" r="1"/><circle id="Oval" cx="45" cy="42" r="1"/><circle id="Oval" cx="41" cy="44" r="1"/><circle id="Oval" cx="41" cy="40" r="1"/><circle id="Oval" cx="37" cy="46.046" r="1"/></g><path id="Shape" d="m29 11h-1c-.5522847 0-1-.4477153-1-1 0-.55228475.4477153-1 1-1h1c.5522847 0 1 .44771525 1 1 0 .5522847-.4477153 1-1 1z" fill="#f09372"/><path id="Shape" d="m45 11h-12c-.5522847 0-1-.4477153-1-1 0-.55228475.4477153-1 1-1h12c.5522847 0 1 .44771525 1 1 0 .5522847-.4477153 1-1 1z" fill="#f09372"/><path id="Shape" d="m28.58 38.532c-.4689864-1.2114547-.7450089-2.4889869-.818-3.786.051-1.361.614-2.763.288-4.116-.4946756-1.8437988-2.0607072-3.2016069-3.956-3.43-2.24-.309-3.665.824-4.916 2.449-.179.234-.36.466-.554.689-.907 1.043-2.056.842-3.3.652-.9273304-.1637211-1.8771854-.1515087-2.8.036-2.67087618.5418288-4.47032465 3.0538135-4.124 5.757.393 3.073.916 6.03.316 9.122-.44485565 1.5589733-.56567188 3.1925449-.355 4.8.5 2.211 2.608 2.573 4.662 2.088 1.146-.272 2.281-.573 3.4-.941 1.1754724-.4683368 2.3832928-.8510027 3.614-1.145 1.0750263-.1764052 2.177796-.0567944 3.19.346.9547986.4497665 2.0177329.6190037 3.065.488.9450197-.1662978 1.7620737-.7556965 2.218-1.6.3483445-.9841999.3832787-2.0521386.1-3.057-.1986147-1.0308094-.2323679-2.0866094-.1-3.128.3256539-1.322021.4417338-2.6869727.344-4.045-.0665199-.3983568-.158034-.7921345-.274-1.179z" fill="#e64c3c"/><path id="Shape" d="m12 39c-.5522847 0-1-.4477153-1-1-.0315929-1.0702387.3796808-2.1061138 1.1367835-2.8632165s1.7929778-1.1683764 2.8632165-1.1367835c.5522847-.0016568 1.0013431.4447153 1.0029999.997.0016569.5522847-.4447152 1.0013431-.9969999 1.003-.5411723-.035899-1.0715853.1630423-1.4556669.5459751s-.5846109.9127475-.5503331 1.4540249c0 .5522847-.4477153 1-1 1z" fill="#fb7b76"/></g></g></svg>