<?xml version="1.0" encoding="iso-8859-1"?>
<!-- Generator: Adobe Illustrator 19.0.0, SVG Export Plug-In . SVG Version: 6.00 Build 0)  -->
<svg version="1.1" id="Layer_1" xmlns="http://www.w3.org/2000/svg" xmlns:xlink="http://www.w3.org/1999/xlink" x="0px" y="0px"
	 viewBox="0 0 512 512" style="enable-background:new 0 0 512 512;" xml:space="preserve">
<path style="fill:#E6EEFF;" d="M191.576,104.649c-7.689-11.591-19.504-18.724-33.436-20.507
	c-11.702-20.952-33.77-34.327-58.178-34.327h-0.334C75.333,49.926,53.488,63.3,41.786,84.141
	c-13.931,1.783-25.746,8.916-33.435,20.507c-10.254,15.603-11.145,37.225-2.23,53.831c8.582,15.938,24.52,25.077,43.689,25.077
	h100.306c19.17,0,35.106-9.139,43.688-25.077C202.721,141.762,201.83,120.14,191.576,104.649z"/>
<path style="fill:#DAE2F2;" d="M193.805,158.48c-8.582,15.938-24.519,25.077-43.688,25.077H99.63V49.814h0.334
	c24.407,0,46.474,13.374,58.178,34.327c13.931,1.783,25.746,8.916,33.436,20.507C201.83,120.14,202.721,141.762,193.805,158.48z"/>
<path style="fill:#E6EEFF;" d="M452.374,373.804c-12.594-23.628-40.346-38.562-68.543-39.454
	c-26.748-0.892-53.944,10.699-69.323,39.454c-66.092,6.91-63.193,110.671,7.578,110.671h122.597
	C515.233,484.476,518.798,380.714,452.374,373.804z"/>
<path style="fill:#DAE2F2;" d="M444.683,484.476H383.83V334.35c28.197,0.892,55.949,15.826,68.543,39.454
	C518.798,380.714,515.233,484.476,444.683,484.476z"/>
<path style="fill:#A1A7B3;" d="M160.927,506.766c-9.229,0-16.718-7.483-16.718-16.718c0-9.218-7.5-16.718-16.718-16.718H94.056
	c-27.656,0-50.153-22.498-50.153-50.153s22.498-50.153,50.153-50.153h66.871c9.218,0,16.718-7.5,16.718-16.718v-33.435
	c0-9.235,7.488-16.718,16.718-16.718c9.229,0,16.718,7.483,16.718,16.718v33.435c0,27.656-22.498,50.153-50.153,50.153H94.056
	c-9.218,0-16.718,7.5-16.718,16.718s7.5,16.718,16.718,16.718h33.436c27.656,0,50.153,22.498,50.153,50.153
	C177.645,499.283,170.158,506.766,160.927,506.766z"/>
<g>
	<path style="fill:#979CA7;" d="M177.645,356.306c0,9.218-7.5,16.718-16.718,16.718h-16.718l-33.436,33.436h50.153
		c27.656,0,50.153-22.498,50.153-50.153v-33.435c0-4.616-1.872-8.796-4.898-11.821l-28.537,28.538V356.306z"/>
	<path style="fill:#979CA7;" d="M94.056,473.331h33.436c9.218,0,16.718,7.5,16.718,16.718c0,9.235,7.488,16.718,16.718,16.718
		c9.229,0,16.718-7.483,16.718-16.718c0-27.656-22.498-50.153-50.153-50.153H94.056c-4.61,0-8.789-1.875-11.816-4.902
		l-23.632,23.632C67.69,467.707,80.228,473.331,94.056,473.331z"/>
</g>
<path style="fill:#F9BC35;" d="M194.363,339.589c1.774,0,3.559-0.283,5.29-0.859l18.432-6.144L512,38.669V21.951
	c0-9.235-7.488-16.718-16.718-16.718H294.669c-7.194,0-13.584,4.604-15.858,11.434L178.504,317.587
	c-2.003,6.003-0.446,12.625,4.038,17.105C185.732,337.88,189.998,339.589,194.363,339.589z"/>
<path style="fill:#F39E31;" d="M507.103,10.131L381.044,136.189l96.888,96.888c5.925,5.925,14.689,7.994,22.639,5.344l0,0
	c6.825-2.275,11.428-8.662,11.428-15.856V21.951C512,17.335,510.129,13.156,507.103,10.131z"/>
<path style="fill:#F25B3C;" d="M507.103,10.131c-3.026-3.026-7.205-4.897-11.819-4.897H294.67c-4.535,0-8.614,1.975-11.681,5.038
	l111.988,111.987L507.103,10.131z"/>
<path style="fill:#E54D2E;" d="M394.976,122.258L182.543,334.691c3.189,3.189,7.455,4.898,11.819,4.898
	c1.774,0,3.559-0.283,5.29-0.859l300.919-100.307c2.522-0.84,4.596-2.378,6.392-4.177L394.976,122.258z"/>
<g>
</g>
<g>
</g>
<g>
</g>
<g>
</g>
<g>
</g>
<g>
</g>
<g>
</g>
<g>
</g>
<g>
</g>
<g>
</g>
<g>
</g>
<g>
</g>
<g>
</g>
<g>
</g>
<g>
</g>
</svg>
