<svg id="Capa_1" enable-background="new 0 0 497 497" height="512" viewBox="0 0 497 497" width="512" xmlns="http://www.w3.org/2000/svg"><g><path d="m394.668 377.747 6.056-302.741-325.731-.009v421.999h209.997c46.572.01 86.052-30.305 99.804-72.28 3.374-10.3 9.879-35.55 9.874-46.969z" fill="#f795ca"/><path d="m497 75c-.001-21.615-15.254-39.681-35.588-44.007l-82.238 314.518c6.922 14.011 10.82 29.8 10.824 46.49.005 11.419-1.829 22.414-5.201 32.706l109.976-335.683c1.445-4.41 2.23-9.119 2.227-14.024z" fill="#b95289"/><path d="m466.264 79.684-87.09 265.827c-17.157-34.675-52.881-58.512-94.175-58.508l127.494-233.565c7.638-13.966 22.474-23.438 39.509-23.434 3.219.002 6.371.34 9.41.989 7.391 4.358 10.912 17.665 8.172 35.025-.738 4.662-1.875 9.256-3.32 13.666z" fill="#d762a1"/><path d="m75 0v422h75s0-305.579 0-347-33.579-75-75-75z" fill="#f472b8"/><path d="m75 0c-41.421 0-75 33.579-75 75s0 347 0 347h120s0-305.579 0-347-20.147-75-45-75z" fill="#f795ca"/><circle cx="75" cy="422" fill="#d762a1" r="75"/><circle cx="75" cy="422" fill="#b95289" r="45"/><circle cx="75" cy="422" fill="#d762a1" r="15"/></g></svg>