<?xml version="1.0" encoding="iso-8859-1"?>
<!-- Generator: Adobe Illustrator 19.0.0, SVG Export Plug-In . SVG Version: 6.00 Build 0)  -->
<svg version="1.1" id="Capa_1" xmlns="http://www.w3.org/2000/svg" xmlns:xlink="http://www.w3.org/1999/xlink" x="0px" y="0px"
	 viewBox="0 0 100.53 100.53" style="enable-background:new 0 0 100.53 100.53;" xml:space="preserve">
<g>
	<path style="fill:#F9E0A4;" d="M50.163,38.615c0-10.36-4.826-29.212-18.758-29.212S12.647,28.255,12.647,38.615
		s8.398,18.758,18.758,18.758C41.766,57.373,50.163,48.975,50.163,38.615z"/>
	<g>
		<path style="fill:#F9E0A4;" d="M90.43,38.342c0-10.36-4.826-29.212-18.758-29.212S52.914,27.982,52.914,38.342
			S61.312,57.1,71.672,57.1C82.031,57.1,90.43,48.702,90.43,38.342z"/>
		<path style="fill:#D4BE8C;" d="M81.771,13.399c-0.66-0.65-1.36-1.246-2.107-1.767l-6.469,7.508l4.688,3.427l-0.946,4.468
			l2.69,0.569l1.313-6.208l-3.718-2.718L81.771,13.399z"/>
	</g>
	<path style="fill:#877874;" d="M3.634,44.769c0,25.754,20.877,46.631,46.631,46.631c25.753,0,46.631-20.877,46.631-46.631H3.634z"
		/>
	<path style="fill:#B3A7A1;" d="M94.703,33.115H5.827C2.609,33.115,0,35.724,0,38.942l0,0c0,3.218,2.609,5.827,5.827,5.827h88.876
		c3.219,0,5.827-2.609,5.827-5.827l0,0C100.53,35.724,97.922,33.115,94.703,33.115z"/>
	<g>
		
			<rect x="20.092" y="54.242" transform="matrix(0.816 0.578 -0.578 0.816 36.4654 -3.0903)" style="fill:#4F4644;" width="5.991" height="3"/>
		
			<rect x="34.149" y="65.398" transform="matrix(0.599 0.8008 -0.8008 0.599 70.9101 -0.1942)" style="fill:#4F4644;" width="3" height="10.6"/>
		
			<rect x="66.658" y="58.266" transform="matrix(0.5193 0.8546 -0.8546 0.5193 85.3771 -32.2596)" style="fill:#4F4644;" width="9.415" height="3.001"/>
		
			<rect x="59.903" y="72.168" transform="matrix(0.859 0.5119 -0.5119 0.859 47.246 -20.8059)" style="fill:#4F4644;" width="2.999" height="6.436"/>
		
			<rect x="51.991" y="45.334" transform="matrix(0.4682 0.8836 -0.8836 0.4682 74.7702 -19.3861)" style="fill:#4F4644;" width="2.999" height="14.179"/>
		
			<rect x="85.853" y="57.501" transform="matrix(0.3275 0.9449 -0.9449 0.3275 115.8052 -44.6972)" style="fill:#4F4644;" width="6.895" height="2.999"/>
		
			<rect x="35.596" y="83.067" transform="matrix(0.9851 0.1722 -0.1722 0.9851 15.1473 -5.4777)" style="fill:#4F4644;" width="7.1" height="3"/>
		
			<rect x="14.381" y="60.38" transform="matrix(0.3995 0.9168 -0.9168 0.3995 68.125 23.8206)" style="fill:#4F4644;" width="3" height="7.056"/>
	</g>
</g>
<g>
</g>
<g>
</g>
<g>
</g>
<g>
</g>
<g>
</g>
<g>
</g>
<g>
</g>
<g>
</g>
<g>
</g>
<g>
</g>
<g>
</g>
<g>
</g>
<g>
</g>
<g>
</g>
<g>
</g>
</svg>
