<?xml version="1.0" encoding="iso-8859-1"?>
<!-- Generator: Adobe Illustrator 19.0.0, SVG Export Plug-In . SVG Version: 6.00 Build 0)  -->
<svg version="1.1" id="Capa_1" xmlns="http://www.w3.org/2000/svg" xmlns:xlink="http://www.w3.org/1999/xlink" x="0px" y="0px"
	 viewBox="0 0 512 512" style="enable-background:new 0 0 512 512;" xml:space="preserve">
<path style="fill:#42210B;" d="M229.966,512c-19.17,0-34.712-15.542-34.712-34.712v-17.356h17.356v17.356
	c0,9.589,7.767,17.356,17.356,17.356c9.589,0,17.356-7.767,17.356-17.356V173.559h17.356v303.729
	C264.678,496.458,249.136,512,229.966,512z"/>
<path style="fill:#2AB69D;" d="M217.4,41.351c-53.265,57.075-82.892,132.235-82.892,210.311l0,0
	c33.549-33.549,87.943-33.549,121.492,0V0L217.4,41.351z"/>
<path style="fill:#E65848;" d="M217.4,41.351L256,0C117.014,0,4.339,112.675,4.339,251.661v8.678l8.678-8.678
	c33.549-33.549,87.943-33.549,121.492,0l0,0C134.508,173.585,164.135,98.425,217.4,41.351z"/>
<path style="fill:#FDC536;" d="M256,0v251.661c33.549-33.549,87.943-33.549,121.492,0c0-78.076-29.627-153.236-82.892-210.311L256,0
	z"/>
<path style="fill:#0B9FBD;" d="M256,0l38.6,41.351c53.265,57.075,82.892,132.235,82.892,210.311
	c33.549-33.549,87.943-33.549,121.492,0l8.678,8.678v-8.678C507.661,112.675,394.986,0,256,0z"/>
<g>
</g>
<g>
</g>
<g>
</g>
<g>
</g>
<g>
</g>
<g>
</g>
<g>
</g>
<g>
</g>
<g>
</g>
<g>
</g>
<g>
</g>
<g>
</g>
<g>
</g>
<g>
</g>
<g>
</g>
</svg>
