<?xml version="1.0"?>
<svg xmlns="http://www.w3.org/2000/svg" id="Filled" viewBox="0 0 512 512" width="512" height="512"><path d="M480,144V312a31.992,31.992,0,0,1-12.8,25.6L352,424v64H160V424L44.8,337.6A31.992,31.992,0,0,1,32,312V144a24.006,24.006,0,0,1,24-24h1.02A24,24,0,0,1,81,142.959l1.71,31.24,33.04-22.03a95.984,95.984,0,0,1,115.42,6.73l30.08,25.57,22.94,19.49a96,96,0,0,0,110.55,9.78l33.69-19.66,2.57-51.12A24,24,0,0,1,454.979,120H456A24.006,24.006,0,0,1,480,144Z" style="fill:#a3d4f7"/><path d="M359.523,136.642,356.09,140.3c-14.619,15.6-41.563,15.6-56.183,0l-3.432-3.661c-8.719-9.3-10.9-22.136-5.663-33.31L328,24l37.186,79.333C370.423,114.506,368.241,127.342,359.523,136.642Z" style="fill:#a3d4f7"/><path d="M256,383.809V488H160V424L44.8,337.6A31.992,31.992,0,0,1,32,312V144a24.006,24.006,0,0,1,24-24h1.02A24,24,0,0,1,81,142.959l1.71,31.24L88,296l12.19-12.19a32.009,32.009,0,0,1,42.07-2.79l101.18,77.37A32.01,32.01,0,0,1,256,383.809Z" style="fill:#f7cca9"/><path d="M480,144V312a31.992,31.992,0,0,1-12.8,25.6L352,424v64H256V383.809a32.01,32.01,0,0,1,12.56-25.42l101.18-77.37a32.009,32.009,0,0,1,42.07,2.79L424,296l4.43-101.92,2.57-51.12A24,24,0,0,1,454.979,120H456A24.006,24.006,0,0,1,480,144Z" style="fill:#f7cca9"/><path d="M294.072,145.776a47.576,47.576,0,0,0,67.856,0l3.432-3.662h0c11.038-11.774,13.747-27.935,7.07-42.178L335.244,20.6a8,8,0,0,0-14.488,0L283.57,99.937c-6.677,14.243-3.968,30.4,7.07,42.177Zm3.985-39.048L328,42.849l29.943,63.879c3.837,8.185,2.206,17.551-4.255,24.443h0l-3.433,3.661a31.6,31.6,0,0,1-44.51,0l-3.433-3.662C295.851,124.279,294.22,114.913,298.057,106.728Z"/><path d="M40,344l112,84v60a8,8,0,0,0,8,8H352a8,8,0,0,0,8-8V428l112-84a40.176,40.176,0,0,0,16-32V144a32.036,32.036,0,0,0-32-32h-1.02a31.928,31.928,0,0,0-31.97,30.558l-2.353,46.8L390.708,206.83a88.11,88.11,0,0,1-101.337-8.966l-53.019-45.059a103.984,103.984,0,0,0-125.04-7.291l-21.38,14.255-.94-17.158A31.939,31.939,0,0,0,57.02,112H56a32.036,32.036,0,0,0-32,32V312A40.174,40.174,0,0,0,40,344ZM436.419,194.482l2.573-51.173A15.973,15.973,0,0,1,454.98,128H456a16.019,16.019,0,0,1,16,16V312a24.1,24.1,0,0,1-9.6,19.2L347.2,417.6A8,8,0,0,0,344,424v56H264V383.81a24.15,24.15,0,0,1,9.419-19.065L374.6,287.377a24.089,24.089,0,0,1,31.557,2.09l6.144,6.143-57.565,50.369a8,8,0,0,0,10.536,12.042l64-56-.013-.015a7.982,7.982,0,0,0,2.738-5.659ZM120.188,158.826a88.35,88.35,0,0,1,105.8,6.17l53.019,45.059a104.122,104.122,0,0,0,119.764,10.594L419.8,208.378l-3,69.121a40.147,40.147,0,0,0-51.916-2.834L263.7,352.037a39.694,39.694,0,0,0-7.7,7.823,39.714,39.714,0,0,0-7.7-7.825L147.116,274.663A40.145,40.145,0,0,0,95.2,277.5L90.9,178.356ZM40,144a16.019,16.019,0,0,1,16-16h1.02a15.993,15.993,0,0,1,15.992,15.4l1.7,31.15,5.29,121.8a7.982,7.982,0,0,0,2.738,5.659l-.013.015,64,56a8,8,0,0,0,10.536-12.042L99.7,295.61l6.144-6.143a24.088,24.088,0,0,1,31.553-2.092l101.179,77.369A24.15,24.15,0,0,1,248,383.81V480H168V424a8,8,0,0,0-3.2-6.4L49.6,331.2A24.1,24.1,0,0,1,40,312Z"/></svg>
