<svg id="Capa_1" enable-background="new 0 0 512 512" height="512" viewBox="0 0 512 512" width="512" xmlns="http://www.w3.org/2000/svg"><g><path d="m423.701 497h-335.402l21.901-106 145.8-30 145.8 30z" fill="#a34f3e"/><path d="m423.701 497h-167.701v-136l145.8 30z" fill="#873f2e"/><path d="m482.5 216.099c0 65.099-33.6 128.699-80.4 174.901h-292.2c-46.8-46.201-80.4-109.801-80.4-174.901 0-105 93.3-216.099 226.5-216.099s226.5 111.099 226.5 216.099z" fill="#fff5f5"/><path d="m482.5 216.099c0 65.099-33.6 128.699-80.4 174.901h-146.1v-391c133.2 0 226.5 111.099 226.5 216.099z" fill="#efe2dd"/><g><path d="m241 316h30v75h-30z" fill="#c86e59"/></g><g><g><g><path d="m331 121h30v30h-30z" fill="#e1d3ce"/></g></g></g><g><path d="m391 241h30v30h-30z" fill="#e1d3ce"/></g><g><path d="m91 271h30v30h-30z" fill="#efe2dd"/></g><g><g><g><path d="m181 61h30v30h-30z" fill="#efe2dd"/></g></g></g><g><path d="m121 151h30v30h-30z" fill="#efe2dd"/></g><path d="m256 316h15v75h-15z" fill="#a34f3e"/><g><g><g><g><path d="m376 271-45-60h12.9l-87.9-132.001-87.9 132.001h12.9l-45 60h45l-45 60h240l-45-60z" fill="#97de3d"/></g></g></g></g><path d="m376 331h-120v-252.001l87.9 132.001h-12.9l45 60h-45z" fill="#59c36a"/><g><path d="m61 482h390v30h-390z" fill="#ffd396"/></g><path d="m256 482h195v30h-195z" fill="#ffb64c"/></g></svg>