<svg height="504pt" viewBox="0 0 504.9751 504" width="504pt" xmlns="http://www.w3.org/2000/svg"><path d="m47.289062 269.5625c-16.761718-98.839844 32.332032-197.171875 121.410157-243.171875 89.074219-46 197.675781-29.101563 268.5625 41.785156 70.890625 70.890625 87.789062 179.488281 41.789062 268.566407-46 89.074218-144.332031 138.167968-243.175781 121.40625" fill="#f0c419"/><path d="m235.875 458.148438c100.523438 17.09375 200.328125-33.902344 245.378906-125.375 45.050782-91.472657 24.632813-201.675782-50.191406-270.945313-74.824219-69.265625-186.273438-81.128906-274.003906-29.164063-87.730469 51.964844-130.886719 155.402344-106.097656 254.308594" fill="#f0c419"/><path d="m303.375 390.738281c29.304688-4.238281 56.421875-17.929687 77.226562-39 13.710938-14.066406 21.523438-32.839843 21.84375-52.480469 0-43.007812-39.421874-79.273437-93.097656-90.28125h-.085937zm0 0" fill="#802d40"/><path d="m380.601562 351.738281c-20.804687 21.070313-47.921874 34.761719-77.226562 39l2.304688-70.914062 34.730468 4.351562c8.363282.171875 23.976563 4.183594 40.191406 27.5625zm0 0" fill="#ff5364"/><path d="m344.847656 338.597656c.015625 6.792969-2.6875 13.308594-7.511718 18.089844l-108.882813 108.886719c-40.011719 39.933593-104.800781 39.933593-144.8125 0l-36.179687-36.265625c-60.332032-60.332032-38.828126-99.160156-14.679688-123.308594 0 0 53.164062-53.164062 68.609375-85.929688 3.375-7.480468 11.527344-11.578124 19.542969-9.8125 8.109375 1.976563 15.097656 7.101563 19.421875 14.242188 4.324219 7.144531 5.625 15.710938 3.617187 23.816406-1.15625 6.832032-3.621094 13.378906-7.253906 19.285156l70.828125-70.828124 12.117187-12.03125c6.382813-6.847657 15.992188-9.667969 25.0625-7.351563 9.070313 2.316406 16.152344 9.398437 18.46875 18.46875 2.316407 9.070313-.5 18.683594-7.351562 25.0625l14.761719-14.675781c6.675781-7.042969 16.8125-9.601563 26.027343-6.570313 8.492188 2.761719 14.945313 9.730469 17.050782 18.40625 2.101562 8.679688-.441406 17.828125-6.722656 24.175781l-12.117188 12.117188c6.34375-6.246094 15.488281-8.726562 24.117188-6.546875 8.632812 2.179687 15.5 8.703125 18.121093 17.210937 3.03125 9.242188.472657 19.40625-6.570312 26.113282l-29.355469 29.355468c7.320312-7.3125 18.324219-9.5 27.882812-5.539062 9.5625 3.957031 15.800782 13.28125 15.808594 23.628906zm0 0" fill="#f0c419"/><path d="m343.371094 314.472656c-4.230469-4.238281-9.503906-7.28125-15.292969-8.820312l8.464844-8.46875c9.40625-9.039063 12.730469-22.703125 8.535156-35.054688-3.863281-11.519531-13.457031-20.191406-25.308594-22.867187l-.292969-.058594c3.410157-6.972656 4.332032-14.902344 2.621094-22.46875-2.636718-11.710937-11.179687-21.207031-22.546875-25.0625-9.539062-3.335937-20.082031-2.074219-28.566406 3.414063-2.816406-12.066407-11.949219-21.660157-23.863281-25.0625-11.910156-3.40625-24.734375-.085938-33.5 8.667968l-60.6875 60.585938c-.28125-17.882813-12.714844-33.269532-30.140625-37.296875-11.917969-2.679688-24.082031 3.378906-29.125 14.503906-14.632813 30.996094-66.40625 82.953125-66.917969 83.484375-40.046875 40.035156-35.105469 85.585938 14.667969 135.363281l36.199219 36.300781c43.367187 43.195313 113.5 43.195313 156.867187 0l108.894531-108.886718c6.40625-6.394532 10.007813-15.070313 10.007813-24.121094s-3.601563-17.730469-10.007813-24.125zm-12.09375 36.183594-108.882813 108.882812c-36.699219 36.546876-96.039062 36.546876-132.738281 0l-36.164062-36.265624c-55.804688-55.808594-37.152344-88.746094-14.675782-111.238282 2.210938-2.210937 54.398438-54.613281 70.304688-88.355468 1.417968-3.179688 4.550781-5.253907 8.03125-5.316407.601562-.003906 1.199218.0625 1.785156.195313 3.34375.804687 19.828125 5.972656 16.570312 28.679687-.972656 5.453125-2.949218 10.679688-5.820312 15.414063l-40.414062 40.386718c-2.21875 2.144532-3.109376 5.316407-2.328126 8.300782.78125 2.980468 3.113282 5.3125 6.097657 6.09375 2.980469.78125 6.15625-.109375 8.296875-2.328125l41.386718-41.386719c.078126-.078125.101563-.179688.171876-.257812l82.773437-82.6875c4.242187-4.609376 10.671875-6.523438 16.746094-4.984376 6.074219 1.535157 10.816406 6.28125 12.355469 12.355469 1.539062 6.074219-.378907 12.503907-4.988282 16.746094l-111.871094 111.871094c-2.21875 2.144531-3.109374 5.316406-2.328124 8.300781.78125 2.980469 3.113281 5.3125 6.09375 6.09375 2.984374.78125 6.15625-.109375 8.300781-2.328125l110.601562-110.574219 1.277344-1.28125 14.78125-14.695312c4.320313-4.703125 10.972656-6.488282 17.066406-4.574219 5.902344 1.855469 10.375 6.707031 11.742188 12.742187 1.296875 5.6875-.414063 11.644532-4.53125 15.777344l-11.945313 11.949219-.105468.09375-108.652344 108.660156c-2.21875 2.144531-3.109375 5.316407-2.328125 8.300781.78125 2.984376 3.109375 5.3125 6.09375 6.09375s6.15625-.109374 8.300781-2.328124l108.566406-108.570313.113282-.109375c3.972656-3.9375 9.675781-5.582031 15.136718-4.367188 6.128906 1.476563 11.042969 6.042969 12.960938 12.046876 1.859375 6.117187.078125 12.757812-4.589844 17.128906l-29.355469 29.351562-84.734375 84.652344c-2.21875 2.140625-3.109375 5.316406-2.328125 8.296875.78125 2.984375 3.113281 5.316406 6.09375 6.097656 2.984375.777344 6.15625-.109375 8.300781-2.328125l84.734376-84.652344c4.246093-4.609374 10.671874-6.523437 16.746093-4.984374 6.078125 1.535156 10.820313 6.28125 12.355469 12.355468 1.539062 6.074219-.375 12.5-4.984375 16.746094zm0 0" fill="#f29c1f"/><g fill="#e57e25"><path d="m163.515625 128.59375c-3.453125-.003906-6.5625-2.082031-7.882813-5.269531-1.320312-3.1875-.589843-6.859375 1.847657-9.296875 14.875-13.273438 33.984375-20.8125 53.914062-21.273438-10.972656-7.628906-24.695312-10.179687-37.675781-7-4.570312.832032-8.964844-2.152344-9.886719-6.707031s1.972657-9.007813 6.507813-10.015625c27.199218-6.648438 55.488281 5.691406 69.121094 30.148438 1.457031 2.914062 1.125 6.402343-.855469 8.992187-1.960938 2.609375-5.257813 3.851563-8.453125 3.183594-21.390625-4.925781-43.851563.539062-60.589844 14.738281-1.601562 1.601562-3.78125 2.503906-6.046875 2.5zm0 0"/><path d="m385.378906 128.59375c-2.238281-.011719-4.382812-.90625-5.972656-2.484375-16.707031-14.257813-39.191406-19.734375-60.585938-14.753906-3.195312.660156-6.488281-.578125-8.457031-3.183594-1.976562-2.589844-2.308593-6.078125-.851562-8.992187 13.609375-24.441407 41.867187-36.777344 69.042969-30.148438 3.078124.503906 5.632812 2.648438 6.664062 5.589844 1.035156 2.945312.378906 6.214844-1.703125 8.535156-2.085937 2.320312-5.273437 3.316406-8.308594 2.597656-12.980469-3.171875-26.695312-.625-37.671875 7 19.925782.457032 39.042969 8 53.914063 21.273438 2.441406 2.445312 3.171875 6.121094 1.839843 9.3125-1.328124 3.191406-4.453124 5.265625-7.910156 5.253906zm0 0"/></g></svg>