<svg id="_x33_0" enable-background="new 0 0 64 64" height="512" viewBox="0 0 64 64" width="512" xmlns="http://www.w3.org/2000/svg"><g><g><g><path d="m62 57v4c0 .55-.45 1-1 1h-58c-.55 0-1-.45-1-1v-4c0-.55.45-1 1-1h1 56 1c.55 0 1 .45 1 1z" fill="#b27946"/></g><g><path d="m62 47v4c0 .55-.45 1-1 1h-1-56-1c-.55 0-1-.45-1-1v-4c0-.55.45-1 1-1h1 47 3.54c.69 1.2 1.98 2 3.46 2 1.44 0 2.71-.76 3.41-1.91.35.16.59.5.59.91z" fill="#b27946"/></g><g><path d="m44 42h-40-1c-.55 0-1-.45-1-1v-4c0-.55.45-1 1-1h1 18 16 2.54c-.34.59-.54 1.27-.54 2 0 2.21 1.79 4 4 4z" fill="#b27946"/></g><g><path d="m4 52h56v4h-56z" fill="#cf9e76"/></g><g><path d="m51 46h-47v-4h40c2.21 0 4-1.79 4-4 0-2.07-1.57-3.77-3.59-3.98l.01-.07c.19.04.38.05.58.05.74 0 1.44-.2 2.04-.56-.03.18-.04.37-.04.56 0 2.21 1.79 4 4 4-2.21 0-4 1.79-4 4s1.79 4 4 4z" fill="#cf9e76"/></g><g><path d="m57.92 4.01-2.97.24c-5.8.49-11.29 2.87-15.59 6.79-2.87 2.61-5.13 5.82-6.62 9.39l-2.08 4.99c-1.86-.62-3.61-1.5-5.23-2.59l1.12-3.1c.81-2.21 1.89-4.29 3.22-6.19 1.33-1.91 2.91-3.65 4.7-5.17 2.43-2.05 5.19-3.65 8.13-4.73 2.95-1.08 6.08-1.64 9.27-1.64 2.26 0 4.36.75 6.05 2.01z" fill="#b4dd7f"/></g><g><path d="m62 12.13c0 5.1-1.44 10.06-4.13 14.33-.56-.29-1.19-.46-1.87-.46-.35 0-.68.04-1 .13h-.01c.01-.04.01-.09.01-.13 0-.99-.37-1.9-.97-2.61 3.28-4.09 5.28-9.08 5.72-14.34l.24-2.97c1.26 1.69 2.01 3.79 2.01 6.05z" fill="#b4dd7f"/></g><g><path d="m32.78 26.03c-.72-.17-1.43-.37-2.12-.61l2.08-4.99c1.49-3.57 3.75-6.78 6.62-9.39 4.3-3.92 9.79-6.3 15.59-6.79l2.97-.24c.39.29.76.61 1.11.96l-2.5 1.11c-4.32 1.93-8.24 4.63-11.59 7.98-2.61 2.61-4.84 5.59-6.61 8.83l-.36.66v.01c-1.13.66-1.91 1.87-1.96 3.27h-.01c-.99-.43-2.08-.71-3.22-.8z" fill="#a0d468"/></g><g><path d="m62 44c0 .76-.22 1.48-.59 2.09-.7 1.15-1.97 1.91-3.41 1.91-1.48 0-2.77-.8-3.46-2-.25-.43-.42-.9-.49-1.41-.03-.19-.05-.39-.05-.59 0-.99.36-1.89.96-2.59.73-.87 1.82-1.41 3.04-1.41.47 0 .93.08 1.35.24 1.55.55 2.65 2.03 2.65 3.76z" fill="#b4dd7f"/></g><g><path d="m58.35 33.24c1.55.55 2.65 2.03 2.65 3.76 0 1.33-.65 2.51-1.65 3.23v.01c-.42-.16-.88-.24-1.35-.24-1.22 0-2.31.54-3.04 1.41-.29-1.93-1.95-3.41-3.96-3.41 2.21 0 4-1.79 4-4 0-.15-.01-.3-.03-.45.6-.35 1.29-.55 2.03-.55.47 0 .93.08 1.35.24z" fill="#b4dd7f"/></g><g><path d="m59.99 6.08-.24 2.97c-.44 5.26-2.44 10.25-5.72 14.34-.73-.85-1.82-1.39-3.03-1.39-.83 0-1.59.25-2.23.68-.21-.61-.56-1.15-1.02-1.59.75-.65 1.49-1.33 2.19-2.03 3.35-3.35 6.05-7.27 7.98-11.59l1.11-2.5c.35.35.67.72.96 1.11z" fill="#a0d468"/></g><g><path d="m57.87 26.46c1.27.68 2.13 2.01 2.13 3.54 0 1.33-.65 2.51-1.65 3.24-.42-.16-.88-.24-1.35-.24-.74 0-1.43.2-2.03.55-.22-2-1.91-3.55-3.97-3.55 2.17 0 3.93-1.72 3.99-3.87h.01c.32-.09.65-.13 1-.13.68 0 1.31.17 1.87.46z" fill="#b4dd7f"/></g><g><path d="m59.03 4.97-1.11 2.5c-1.93 4.32-4.63 8.24-7.98 11.59-.7.7-1.44 1.38-2.19 2.03-.72-.67-1.69-1.09-2.75-1.09-1.92 0-3.52 1.35-3.91 3.15-.35-.1-.71-.15-1.09-.15-.74 0-1.43.2-2.03.56v-.01l.36-.66c1.77-3.24 4-6.22 6.61-8.83 3.35-3.35 7.27-6.05 11.59-7.98z" fill="#b4dd7f"/></g><g><path d="m55 26c0 .04 0 .09-.01.13-.06 2.15-1.82 3.87-3.99 3.87-.74 0-1.44-.2-2.04-.56-.14-.97-.61-1.82-1.31-2.44.83-.73 1.35-1.81 1.35-3 0-.46-.08-.91-.23-1.32.64-.43 1.4-.68 2.23-.68 1.21 0 2.3.54 3.03 1.39.6.71.97 1.62.97 2.61z" fill="#b4dd7f"/></g><g><path d="m54.97 33.55c.02.15.03.3.03.45 0 2.21-1.79 4-4 4s-4-1.79-4-4c0-.19.01-.38.04-.56.17-1.23.9-2.27 1.92-2.88.6-.35 1.3-.56 2.04-.56 2.06 0 3.75 1.55 3.97 3.55z" fill="#b4dd7f"/></g><g><path d="m54.05 44.59h-.01c-.73.86-1.82 1.41-3.04 1.41-2.21 0-4-1.79-4-4s1.79-4 4-4c2.01 0 3.67 1.48 3.96 3.41-.6.7-.96 1.6-.96 2.59 0 .2.02.4.05.59z" fill="#b4dd7f"/></g><g><path d="m49 30c0 .19-.01.38-.04.56-1.02.61-1.75 1.65-1.92 2.88-.6.36-1.3.56-2.04.56-.2 0-.39-.01-.58-.05-.98-.14-1.85-.63-2.46-1.36-.6-.7-.96-1.6-.96-2.59 0-.2.02-.4.05-.59.23-1.57 1.36-2.84 2.86-3.26.35-.1.71-.15 1.09-.15 1.01 0 1.94.38 2.65 1 .7.62 1.17 1.47 1.31 2.44.03.18.04.37.04.56z" fill="#b4dd7f"/></g><g><path d="m48.77 22.68c.15.41.23.86.23 1.32 0 1.19-.52 2.27-1.35 3-.71-.62-1.64-1-2.65-1-.38 0-.74.05-1.09.15-.31-1.45-1.41-2.6-2.82-3 .39-1.8 1.99-3.15 3.91-3.15 1.06 0 2.03.42 2.75 1.09.46.44.81.98 1.02 1.59z" fill="#b4dd7f"/></g><g><path d="m44.41 34.02c2.02.21 3.59 1.91 3.59 3.98 0 2.21-1.79 4-4 4s-4-1.79-4-4c0-.73.2-1.41.54-2 .69-1.2 1.98-2 3.46-2 .14 0 .27.01.41.02z" fill="#b4dd7f"/></g><g><path d="m41.09 23.15c1.41.4 2.51 1.55 2.82 3-1.5.42-2.63 1.69-2.86 3.26h-.01c-.73-.86-1.82-1.41-3.04-1.41-.63 0-1.22.15-1.75.41v-.01c-.16-.43-.25-.91-.25-1.4 0-.06 0-.11.01-.17.05-1.4.83-2.61 1.96-3.27.6-.36 1.29-.56 2.03-.56.38 0 .74.05 1.09.15z" fill="#b4dd7f"/></g><g><path d="m41.04 29.41h.01c-.03.19-.05.39-.05.59 0 .99.36 1.89.96 2.59-.29 1.93-1.95 3.41-3.96 3.41-2.21 0-4-1.79-4-4 0-1.58.92-2.95 2.25-3.59.53-.26 1.12-.41 1.75-.41 1.22 0 2.31.55 3.04 1.41z" fill="#b4dd7f"/></g><g><path d="m38 36h-16c0-2.98 1.31-5.66 3.38-7.49 1.76-1.56 4.08-2.51 6.62-2.51.26 0 .52.01.78.03 1.14.09 2.23.37 3.22.8h.01c-.01.06-.01.11-.01.17 0 .49.09.97.25 1.4v.01c-1.33.64-2.25 2.01-2.25 3.59 0 2.21 1.79 4 4 4z" fill="#ff826e"/></g><g><path d="m14.07 24.16c-1.66.26-3.21.87-4.56 1.74-.98-2.09-1.51-4.4-1.51-6.79v-.2c0-1.24.4-2.45 1.14-3.44l.14-.18c.15-.2.31-.39.48-.56.92-.94 2.13-1.54 3.44-1.69.22-.03.44-.04.66-.04 1.96 0 3.78 1 4.83 2.65l.47.75c1.64 2.58 3.78 4.76 6.27 6.43 1.62 1.09 3.37 1.97 5.23 2.59.69.24 1.4.44 2.12.61-.26-.02-.52-.03-.78-.03-2.54 0-4.86.95-6.62 2.51-2.2-2.75-5.59-4.51-9.38-4.51-.66 0-1.3.05-1.93.16z" fill="#fcd770"/></g><g><path d="m14.07 24.16c.63-.11 1.27-.16 1.93-.16 3.79 0 7.18 1.76 9.38 4.51-2.07 1.83-3.38 4.51-3.38 7.49h-18c0-4.24 2.19-7.96 5.51-10.1 1.35-.87 2.9-1.48 4.56-1.74z" fill="#ff826e"/></g><g><path d="m16 5.13v.07c0 1.65-1.12 3.08-2.71 3.48l-1.29.32-4 1-3.79.95c-.14.03-.28.05-.43.05-.98 0-1.78-.8-1.78-1.78v-.76c0-.85.6-1.58 1.43-1.75l5.73-1.14c1.82-.37 3.42-1.44 4.45-2.98l.39-.59.09.05c1.17.58 1.91 1.78 1.91 3.08z" fill="#b4dd7f"/></g><g><path d="m12 9.17c0 1.39.42 2.74 1.2 3.87-1.31.15-2.52.75-3.44 1.69-1.13-1.31-1.76-2.99-1.76-4.73l4-1z" fill="#b4dd7f"/></g></g><path d="m60.98 40.009c.648-.859 1.02-1.913 1.02-3.009 0-1.636-.801-3.078-2.02-3.991.648-.859 1.02-1.912 1.02-3.009 0-1.538-.713-2.9-1.81-3.818 2.485-4.266 3.81-9.098 3.81-14.05 0-6.138-4.994-11.132-11.133-11.132-6.6 0-13.008 2.348-18.045 6.61-3.711 3.139-6.549 7.212-8.209 11.779l-.671 1.844c-1.919-1.475-3.599-3.27-4.935-5.37l-.479-.751c-1.239-1.948-3.358-3.112-5.668-3.112-.036 0-.071.006-.107.006-.387-.692-.628-1.448-.709-2.237l.489-.122c2.042-.51 3.467-2.339 3.467-4.513 0-1.698-.943-3.224-2.462-3.983l-.881-.44-.881 1.322c-.89 1.333-2.244 2.241-3.815 2.556l-5.726 1.144c-1.295.26-2.235 1.406-2.235 2.727v.759c0 1.533 1.248 2.781 2.781 2.781.226 0 .451-.028.674-.083l2.648-.662c.191 1.236.658 2.414 1.373 3.444l-.132.176c-.866 1.156-1.344 2.587-1.344 4.032v.205c0 2.234.451 4.393 1.294 6.443-2.951 2.182-4.947 5.575-5.243 9.445h-.051c-1.103 0-2 .897-2 2v4c0 1.103.897 2 2 2v2c-1.103 0-2 .897-2 2v4c0 1.103.897 2 2 2v2c-1.103 0-2 .897-2 2v4c0 1.103.897 2 2 2h58c1.103 0 2-.897 2-2v-4c0-1.103-.897-2-2-2v-2c1.103 0 2-.897 2-2v-4c0-.417-.138-.809-.368-1.139.233-.576.368-1.202.368-1.861 0-1.636-.801-3.078-2.02-3.991zm-2.98 6.991c-1.654 0-3-1.346-3-3s1.346-3 3-3 3 1.346 3 3-1.346 3-3 3zm-26-20c1.053 0 2.073.189 3.048.541.015.136.021.273.046.407-1.262.908-2.094 2.381-2.094 4.052 0 1.13.391 2.162 1.026 3h-10.967c.499-4.493 4.316-8 8.941-8zm19 2c-.414 0-.81-.109-1.184-.272-.167-.63-.449-1.207-.83-1.714.651-.862 1.014-1.917 1.014-3.014 0-.271-.038-.532-.08-.791.343-.133.706-.209 1.08-.209 1.654 0 3 1.346 3 3s-1.346 3-3 3zm3 5c0 1.654-1.346 3-3 3s-3-1.346-3-3 1.346-3 3-3 3 1.346 3 3zm-16.991-6.9c-.001-.034-.009-.066-.009-.1 0-1.654 1.346-3 3-3 1.13 0 2.14.649 2.649 1.615-.887.478-1.606 1.207-2.071 2.102-.77-.464-1.658-.717-2.578-.717-.339 0-.671.035-.991.1zm20.045-20.154-.051.114c-1.885 4.222-4.498 8.021-7.769 11.292-.499.499-1.018.98-1.542 1.448-.779-.501-1.699-.8-2.692-.8-2.016 0-3.815 1.234-4.591 3.036-.13-.011-.256-.034-.388-.034 1.581-2.628 3.456-5.065 5.627-7.236 3.27-3.27 7.068-5.883 11.291-7.769zm-10.87 25.782c-.375.163-.771.272-1.184.272-1.654 0-3-1.346-3-3s1.346-3 3-3 3 1.346 3 3c0 .009-.002.018-.002.027-.878.665-1.524 1.607-1.814 2.701zm-3.828-10.124c.511-.959 1.518-1.604 2.644-1.604 1.654 0 3 1.346 3 3 0 .606-.192 1.188-.527 1.681-.732-.421-1.569-.681-2.473-.681-.139 0-.27.03-.407.041-.45-1.05-1.248-1.904-2.237-2.437zm11.519-.682c-.815-.576-1.803-.922-2.875-.922-.617 0-1.216.125-1.782.342-.03-.048-.052-.101-.084-.148.515-.464 1.024-.937 1.514-1.428 3.444-3.444 6.196-7.445 8.181-11.891l.015-.033-.094 1.128c-.394 4.712-2.084 9.163-4.875 12.952zm2.281-16.765-.031.014c-4.448 1.985-8.448 4.738-11.891 8.181-2.683 2.682-4.964 5.731-6.781 9.063l-.238.436c-.927.624-1.612 1.558-1.958 2.644-.733-.227-1.487-.374-2.255-.443-.336-.078-.66-.186-.99-.279l1.646-3.952c1.425-3.421 3.628-6.547 6.371-9.041 4.122-3.747 9.45-6.066 15.001-6.528zm-21.156 26.843c0-1.654 1.346-3 3-3 .758 0 1.469.299 2.02.805-.003.066-.02.128-.02.195 0 1.046.325 2.015.876 2.819-.362 1.264-1.531 2.181-2.876 2.181-1.654 0-3-1.346-3-3zm6 6c0-1.654 1.346-3 3-3s3 1.346 3 3-1.346 3-3 3-3-1.346-3-3zm7 4c0-1.654 1.346-3 3-3 1.345 0 2.514.917 2.876 2.181-.551.804-.876 1.773-.876 2.819 0 .067.017.129.02.195-.552.506-1.264.805-2.02.805-1.654 0-3-1.346-3-3zm11.087-2.873c-.351-.078-.713-.127-1.087-.127-.94 0-1.81.276-2.562.729-.354-.685-.863-1.269-1.475-1.724 1.177-.873 1.953-2.243 2.017-3.803.327-.119.667-.202 1.02-.202 1.654 0 3 1.346 3 3 0 .807-.344 1.566-.913 2.127zm-2.087-7.127c-.46 0-.914.066-1.352.189-.344-.88-.932-1.632-1.679-2.189.966-.719 1.675-1.766 1.927-2.987.035-.001.069-.013.104-.013 1.654 0 3 1.346 3 3 0 .807-.344 1.567-.913 2.127-.351-.078-.713-.127-1.087-.127zm.43-6.767c-.456-.137-.93-.233-1.43-.233-.034 0-.067.006-.1.006-.117-.576-.346-1.107-.642-1.593 3.026-3.993 4.887-8.691 5.413-13.678.209.766.33 1.567.33 2.398-.001 4.619-1.243 9.126-3.571 13.1zm-29.938-5.16c1.542-4.24 4.177-8.021 7.621-10.936 4.678-3.957 10.627-6.137 16.754-6.137.834 0 1.638.122 2.405.332-5.772.61-11.289 3.059-15.588 6.968-2.958 2.689-5.334 6.061-6.871 9.75l-1.703 4.087c-1.214-.471-2.373-1.047-3.468-1.727zm-23.52-10.097c-.493.127-.972-.262-.972-.757v-.759c0-.371.264-.693.628-.766l5.726-1.145c1.997-.399 3.731-1.518 4.917-3.162.46.457.729 1.093.729 1.811 0 1.19-.802 2.222-1.95 2.509zm7.11.284c.102.731.313 1.436.615 2.108-.627.214-1.216.523-1.755.909-.472-.764-.762-1.62-.873-2.513zm-2.082 8.851v-.205c0-1.015.335-2.021.942-2.83l.142-.188c.887-1.182 2.298-1.888 3.776-1.888 1.622 0 3.11.817 3.981 2.186l.479.751c2.467 3.878 5.965 6.862 10.083 8.679-1.051.365-2.027.885-2.907 1.532-2.456-2.639-5.856-4.148-9.496-4.148-.237 0-.468.023-.701.036.276-1.162.731-2.277 1.403-3.286l.13-.195-1.664-1.109-.13.195c-.948 1.422-1.572 3.013-1.857 4.677-1.117.248-2.18.64-3.17 1.157-.658-1.714-1.011-3.51-1.011-5.364zm4.003 6.315c.007 1.496.306 2.986.852 4.378-.583-.185-1.126-.489-1.562-.925l-.586-.586-1.414 1.414.586.586c1.085 1.085 2.587 1.707 4.121 1.707s3.036-.622 4.121-1.707l.586-.586-1.414-1.414-.586.586c-.462.461-1.043.779-1.666.957-.679-1.383-1.041-2.924-1.041-4.464 0-.108.02-.214.024-.322.322-.029.646-.05.976-.05 3.062 0 5.926 1.262 8.001 3.472-1.64 1.742-2.722 4.011-2.951 6.528h-16c.416-4.582 3.651-8.353 7.953-9.574zm-10.003 11.574h36.101c-.066.323-.101.658-.101 1 0 1.13.391 2.162 1.026 3h-37.026zm2 6h39c.734 0 1.427-.168 2.055-.454.101.916.441 1.754.97 2.454h-42.025zm56.001 18h-58.001v-4h58zm-2.001-6h-54v-2h54zm-56-4v-4h51.026c.914 1.207 2.348 2 3.974 2 1.13 0 2.162-.391 3-1.026v3.026z"/></g></svg>