<?xml version="1.0" encoding="iso-8859-1"?>
<!-- Generator: Adobe Illustrator 19.0.0, SVG Export Plug-In . SVG Version: 6.00 Build 0)  -->
<svg version="1.1" id="Capa_1" xmlns="http://www.w3.org/2000/svg" xmlns:xlink="http://www.w3.org/1999/xlink" x="0px" y="0px"
	 viewBox="0 0 512 512" style="enable-background:new 0 0 512 512;" xml:space="preserve">
<path style="fill:#93603E;" d="M330.016,109.23c1.483,4.519,3.605,8.859,6.344,12.907c6.417,9.483,16.142,15.899,27.384,18.067
	c11.243,2.168,22.657-0.172,32.14-6.588c7.929-5.365,13.294-13.497,15.107-22.897s-0.144-18.945-5.509-26.873
	c-2.397-3.542-7.21-4.47-10.751-2.073c-3.542,2.397-4.466,7.209-2.073,10.751c3.047,4.504,4.159,9.924,3.129,15.263
	c-1.029,5.339-4.077,9.957-8.58,13.005c-6.057,4.099-13.348,5.593-20.529,4.209c-7.182-1.385-13.393-5.483-17.492-11.541
	c-5.413-8-7.387-17.629-5.558-27.113c1.829-9.484,7.242-17.689,15.241-23.102c3.542-2.397,4.47-7.21,2.073-10.751
	c-2.397-3.542-7.21-4.47-10.751-2.073c-11.425,7.731-19.156,19.449-21.768,32.994C326.735,92.161,327.314,100.994,330.016,109.23z"
	/>
<path style="fill:#30AA44;" d="M306.096,105.827c-1.907-16.218-14.852-87.815-95.726-105.676c-3.847-0.85-7.512,2.027-7.578,5.966
	c-0.407,24.476,5.983,101.524,102.276,102.971C305.404,107.992,305.749,106.907,306.096,105.827z"/>
<path style="fill:#269E35;" d="M223.438,6.116c0.014-0.814,0.188-1.579,0.479-2.279c-4.292-1.397-8.798-2.638-13.548-3.687
	c-3.847-0.85-7.512,2.027-7.578,5.966c-0.408,24.476,5.983,101.524,102.276,102.971c0.16-0.522,0.326-1.035,0.49-1.553
	C228.511,96.381,223.061,28.758,223.438,6.116z"/>
<path style="fill:#93603E;" d="M301.09,129.24c4.162,0.528,8.26,1.305,12.286,2.298c15.06-29.993,39.474-64.574,77.947-87.763
	c4.391-2.648,5.171-8.698,1.614-12.391L371.424,9.04c-4.914-5.103-13.223-4.588-17.458,1.09
	c-14.069,18.865-42.178,61.868-55.363,118.836C299.432,129.056,300.262,129.135,301.09,129.24z"/>
<path style="fill:#7F573C;" d="M369.972,24.687c3.025-4.056,8.125-5.462,12.585-4.083L371.424,9.04
	c-4.914-5.103-13.223-4.588-17.458,1.09c-14.069,18.865-42.178,61.868-55.363,118.836c0.829,0.09,1.659,0.168,2.487,0.273
	c4.162,0.528,8.26,1.305,12.286,2.298c2.892-5.76,6.133-11.691,9.749-17.676C337.569,71.702,358.465,40.117,369.972,24.687z"/>
<path style="fill:#FFA92C;" d="M385.391,188.882l-0.003,0.001c-0.078-0.162-0.157-0.324-0.236-0.486
	c-16.052-32.856-47.784-55.591-84.061-60.19c-90.835-11.516-167.084,65.837-154.675,155.803l-0.032,0.01
	c5.953,28.675,5.083,94.73-36.759,151.861c-22.677,30.939-1.049,72.74,35.486,75.451c33.81,2.509,89.01-0.62,142.205-34.548
	C413.672,396.194,423.298,259.703,385.391,188.882z"/>
<path style="fill:#F7991E;" d="M166.777,511.332c-36.534-2.711-58.163-44.512-35.486-75.451
	c41.842-57.131,42.712-123.186,36.759-151.861l0.032-0.01c-11.069-80.253,48.409-150.464,125.856-156.517
	c-87.641-6.701-159.606,68.922-147.523,156.517l-0.032,0.01c5.953,28.675,5.083,94.73-36.759,151.861
	c-22.677,30.939-1.048,72.74,35.486,75.451c8.462,0.628,18.265,0.902,29.04,0.43C171.598,511.651,169.13,511.507,166.777,511.332z"
	/>
<g>
</g>
<g>
</g>
<g>
</g>
<g>
</g>
<g>
</g>
<g>
</g>
<g>
</g>
<g>
</g>
<g>
</g>
<g>
</g>
<g>
</g>
<g>
</g>
<g>
</g>
<g>
</g>
<g>
</g>
</svg>
