<?xml version="1.0" encoding="iso-8859-1"?>
<!-- Generator: Adobe Illustrator 19.0.0, SVG Export Plug-In . SVG Version: 6.00 Build 0)  -->
<svg version="1.1" id="Capa_1" xmlns="http://www.w3.org/2000/svg" xmlns:xlink="http://www.w3.org/1999/xlink" x="0px" y="0px"
	 viewBox="0 0 512 512" style="enable-background:new 0 0 512 512;" xml:space="preserve">
<path style="fill:#93603E;" d="M308.994,32.138L291.952,12.24c-3.892-4.544-10.925-4.518-14.773,0.062
	c-10.127,12.048-29.424,38.424-43.512,71.573c5.765,1.499,12.094,4.112,17.667,7.758c13.494-17.614,32.363-36.856,55.692-49.126
	C310.857,40.49,311.811,35.427,308.994,32.138z"/>
<path style="fill:#7F573C;" d="M254.268,87.892c13.445-28.314,29.848-50.573,38.91-61.355c2.095-2.492,5.132-3.625,8.094-3.417
	l-9.319-10.88c-3.893-4.544-10.925-4.518-14.773,0.062c-10.127,12.048-29.424,38.424-43.512,71.573
	c5.765,1.499,12.094,4.112,17.667,7.758C252.282,90.394,253.265,89.145,254.268,87.892z"/>
<path style="fill:#9AB748;" d="M86.98,391.923c-4.24-9.172-4.24-19.763,0-28.935c22.537-48.738,95.741-125.526,178.974-108.728
	c-0.803-42.93,4.515-78.592,10.459-104.477c6.137-26.73-7.482-55.187-35.297-65.83c-27.776-10.607-56.929,1.455-70.207,25.501
	c-19.07,34.534-53.523,84.217-111.394,130.918c-94.226,76.038-36.744,204.641,9.194,251.773c7.458,7.652,17.92,11.652,28.581,10.925
	c20.748-1.413,47.778-8.125,74.437-20.405C131.362,459.377,100.309,420.746,86.98,391.923z"/>
<path style="fill:#8CA532;" d="M88.708,492.146c-45.937-47.131-103.419-175.734-9.194-251.773
	c57.871-46.701,92.325-96.384,111.394-130.918c8.34-15.102,22.943-25.472,39.533-28.473c-24.289-4.352-47.949,7.499-59.532,28.473
	c-19.07,34.534-53.523,84.217-111.394,130.918c-94.226,76.038-36.744,204.641,9.194,251.773c7.458,7.652,17.92,11.651,28.581,10.925
	c2.909-0.198,5.954-0.512,9.092-0.919C99.732,500.568,93.578,497.143,88.708,492.146z"/>
<path style="fill:#FFA92C;" d="M459.596,323.556c-36.07-5.062-91.906-18.562-153.072-54.131
	c-98.59-57.327-193.273,35.561-219.996,93.354c-4.314,9.327-4.314,20.026,0,29.354c18.383,39.759,64.461,88.669,116.957,105.224
	c13.125,4.139,26.124,6.205,38.96,6.205c21.93-0.001,43.374-6.036,64.08-18.075c61.165-35.568,117.002-49.067,153.072-54.13
	c25.424-3.568,46.661-25.196,46.661-54.364C506.257,350.261,486.197,327.288,459.596,323.556z"/>
<g>
	<path style="fill:#F7991E;" d="M459.596,411.357c-36.071,5.063-91.908,18.562-153.072,54.13
		c-20.705,12.04-42.149,18.074-64.08,18.075c-12.836,0-25.835-2.066-38.96-6.205c-52.496-16.555-98.573-65.466-116.957-105.224
		c-0.706-1.526-1.284-3.091-1.759-4.678c-2.428,8.116-1.85,16.875,1.759,24.677c18.383,39.759,64.461,88.669,116.957,105.224
		c13.125,4.139,26.124,6.205,38.96,6.205c21.93-0.001,43.374-6.036,64.08-18.075c61.165-35.568,117.002-49.067,153.072-54.13
		c25.424-3.568,46.661-25.196,46.661-54.364c0-3.327-0.312-6.595-0.907-9.776C501.056,391.122,481.947,408.221,459.596,411.357z"/>
	<path style="fill:#F7991E;" d="M148.002,373.473c-2.364,2.109-2.364,5.857,0,7.966c56.338,50.259,182.14,50.21,238.422,0
		c2.364-2.109,2.364-5.857,0-7.966c-25.454-22.707-69.338-37.705-119.211-37.705C217.34,335.768,173.456,350.766,148.002,373.473z"
		/>
</g>
<path style="fill:#EA8B18;" d="M379.067,367.506c-56.686,42.236-166.981,42.274-223.708,0c-2.596,1.923-5.054,3.912-7.357,5.967
	c-2.364,2.109-2.364,5.857,0,7.966c56.338,50.259,182.139,50.211,238.422,0c2.364-2.109,2.364-5.857,0-7.966
	C384.122,371.418,381.663,369.429,379.067,367.506z"/>
<path style="fill:#93603E;" d="M326.23,357.712c-55.863-26.51-138.88-18.993-178.487,16.342c-2.039,1.819-2.039,4.985,0,6.804
	c39.602,35.331,122.619,42.854,178.487,16.342C342.933,389.273,342.933,365.638,326.23,357.712z"/>
<path style="fill:#7F573C;" d="M326.23,397.2c4.042-1.918,7.097-4.761,9.182-8.074c-58.477,18.572-135.33,11.461-179.728-21.385
	c-2.806,1.994-5.459,4.099-7.941,6.314c-0.745,0.665-1.211,1.51-1.412,2.403c-0.124,0.66-0.124,1.337,0,1.997
	c0.201,0.893,0.667,1.739,1.412,2.403C187.344,416.189,270.362,423.712,326.23,397.2z"/>
<path d="M390.161,387.035c5.692-5.076,5.714-14.06,0-19.158c-59.14-52.758-189.275-52.752-248.408,0c0,0,0,0.001-0.001,0.001
	c-5.855,5.224-5.551,14.206,0.001,19.157c27.8,24.802,74.231,39.608,124.204,39.608C315.93,426.644,362.361,411.837,390.161,387.035
	z M331.939,353.056c18.284,5.836,34.224,14.113,46.379,24.4c-12.157,10.287-28.097,18.564-46.382,24.401
	C349.362,390.307,349.35,364.597,331.939,353.056z M154.047,377.456c39.238-32.149,116.916-37.073,167.712-12.97
	c11.012,5.228,11.023,20.705,0,25.937c-20.591,9.772-46.659,15.153-73.403,15.153C210.514,405.578,175.598,395.115,154.047,377.456z
	"/>
<path d="M459.313,316.624c-35.45-4.976-90.341-18.251-150.527-53.25c-11.998-6.977-24.231-12.036-36.658-15.179
	c-0.066-12.052,0.35-24.134,1.247-36.002c0.313-4.131-2.783-7.731-6.913-8.044c-4.121-0.313-7.732,2.782-8.044,6.913
	c-0.855,11.309-1.29,22.804-1.299,34.288c-79.509-10.169-153.279,60.591-178.203,114.492c-8.755,18.937-2.115,34.146,9.958,53.437
	c13.864,22.207,36.126,48.231,65.451,68.112c-20.201,7.914-41.043,12.989-58.801,14.198c-8.483,0.583-16.762-2.585-22.7-8.679
	c-44.235-45.383-99.281-168.536-9.855-240.701c59.239-47.804,94.284-98.782,113.25-133.129
	c13.721-24.847,45.582-32.952,69.942-17.67c17.291,10.916,26.424,32.059,21.687,52.694c-2.036,8.867-3.814,18.067-5.286,27.35
	c-0.648,4.091,2.143,7.933,6.233,8.581c4.087,0.649,7.933-2.142,8.582-6.233c1.417-8.944,3.13-17.806,5.089-26.34
	c5.3-23.08-2.414-47.466-20.719-63.16c13.9-16.707,29.85-29.869,47.51-39.16c8.095-4.257,10.127-14.938,4.175-21.885l0,0
	l-17.04-19.895c-7.039-8.219-19.504-7.865-26.211,0.114c-9.49,11.29-26.995,34.383-41.205,65.842
	c-26.502-4.072-52.811,8.832-65.887,32.511c-18.318,33.173-52.192,82.431-109.54,128.707
	C-7.433,283.748-12.125,358.441,18.38,429.494c11.242,26.182,27.17,50.925,43.701,67.887c8.313,8.529,19.64,13.275,31.458,13.275
	c12.324,0,42.927-4.733,76.548-19.601c24.416,13.43,48.387,18.217,53.651,18.217c3.672,0,6.88-2.699,7.415-6.439
	c0.586-4.101-2.262-7.899-6.363-8.486c-49.34-7.055-95.653-45.871-122.344-87.684c-14.255-22.367-15.574-29.792-7.545-45.335
	c26.164-50.402,94.573-114.594,168.314-99.715c0.094,0.019,0.189,0.026,0.284,0.041c12.818,2.626,25.42,7.52,37.748,14.688
	c62.289,36.221,119.204,49.976,155.982,55.138c21.58,3.028,39.773,21.321,39.773,46.441c0,22.765-17.098,42.332-39.773,45.515
	c-36.779,5.161-93.696,18.916-155.982,55.136c-14.121,8.212-28.8,13.501-43.627,15.719c-4.096,0.612-6.92,4.43-6.308,8.526
	c0.612,4.096,4.425,6.916,8.527,6.308c16.711-2.5,33.18-8.417,48.948-17.586c60.185-34.998,115.077-48.273,150.527-53.249
	C488.077,434.254,512,409.732,512,376.995C512,346.791,489.349,320.839,459.313,316.624z M281.663,17.127
	c0.566-0.673,1.282-0.776,1.659-0.778c1.361-0.007,0.235-0.915,18.117,19.963c-19.504,10.411-37.044,25.054-52.218,43.585
	c-1.164-0.595-3.763-1.806-5.608-2.533C256.896,48.632,272.895,27.558,281.663,17.127z"/>
<path d="M193.189,370.713l-0.613,0.099c-4.093,0.637-6.895,4.471-6.259,8.563c0.576,3.703,3.768,6.349,7.402,6.349
	c0.383,0,0.771-0.029,1.162-0.09l0.743-0.12c4.087-0.672,6.855-4.53,6.183-8.618C201.134,372.809,197.273,370.034,193.189,370.713z"
	/>
<path d="M247.067,384.461l-0.612,0.1c-4.09,0.654-6.876,4.5-6.222,8.59c0.589,3.689,3.776,6.317,7.396,6.317
	c0.394,0,0.792-0.031,1.193-0.095l0.742-0.121c4.084-0.689,6.836-4.56,6.147-8.645C255.021,386.524,251.148,383.771,247.067,384.461
	z"/>
<path d="M247.437,355.624l-0.613,0.099c-4.093,0.637-6.895,4.471-6.259,8.563c0.576,3.703,3.768,6.349,7.402,6.349
	c0.383,0,0.771-0.029,1.162-0.09l0.743-0.12c4.087-0.672,6.855-4.53,6.183-8.618C255.382,357.72,251.522,354.948,247.437,355.624z"
	/>
<path d="M220.068,381.461l-0.612,0.1c-4.09,0.654-6.876,4.5-6.222,8.59c0.589,3.689,3.776,6.317,7.396,6.317
	c0.394,0,0.792-0.031,1.193-0.095l0.742-0.121c4.084-0.689,6.836-4.56,6.147-8.645C228.022,383.525,224.148,380.768,220.068,381.461
	z"/>
<path d="M220.438,360.624l-0.613,0.099c-4.093,0.637-6.895,4.471-6.259,8.563c0.576,3.703,3.768,6.349,7.402,6.349
	c0.383,0,0.771-0.029,1.162-0.09l0.743-0.12c4.087-0.672,6.855-4.53,6.183-8.618C228.383,362.719,224.523,359.951,220.438,360.624z"
	/>
<path d="M275.066,381.461l-0.612,0.1c-4.09,0.654-6.876,4.5-6.222,8.59c0.589,3.689,3.776,6.317,7.396,6.317
	c0.394,0,0.792-0.031,1.193-0.095l0.742-0.121c4.084-0.689,6.836-4.56,6.147-8.645C283.02,383.525,279.148,380.768,275.066,381.461z
	"/>
<path d="M275.436,360.624l-0.613,0.099c-4.093,0.637-6.895,4.471-6.259,8.563c0.576,3.703,3.768,6.349,7.402,6.349
	c0.383,0,0.771-0.029,1.162-0.09l0.743-0.12c4.087-0.672,6.855-4.53,6.183-8.618C283.381,362.719,279.522,359.951,275.436,360.624z"
	/>
<path d="M302.185,370.713l-0.613,0.099c-4.093,0.637-6.895,4.471-6.259,8.563c0.576,3.703,3.768,6.349,7.402,6.349
	c0.383,0,0.771-0.029,1.162-0.09l0.743-0.12c4.087-0.672,6.855-4.53,6.183-8.618C310.13,372.809,306.269,370.034,302.185,370.713z"
	/>
<g>
</g>
<g>
</g>
<g>
</g>
<g>
</g>
<g>
</g>
<g>
</g>
<g>
</g>
<g>
</g>
<g>
</g>
<g>
</g>
<g>
</g>
<g>
</g>
<g>
</g>
<g>
</g>
<g>
</g>
</svg>
